<svg width="239" height="45" fill="none" xmlns="http://www.w3.org/2000/svg"><path fill-rule="evenodd" clip-rule="evenodd" d="M0 27.208c0 8.825 4.317 17.723 13.983 17.723 9.658 0 13.983-8.898 13.983-17.723 0-6.027-1.773-12.967-4.734-18.575C20.353 3.22 16.893 0 13.984 0c-2.92 0-6.38 3.22-9.234 8.633C1.775 14.241 0 21.181 0 27.208Zm99.282-13.97h-9.789V2.409h30.064v10.83h-9.788v29.286H99.281V13.239Zm42.644 0h15.383V2.409h-15.382c-14.133 0-21.679 8.063-21.679 20.058s7.546 20.058 21.679 20.058h15.382V31.692h-15.383c-6.54 0-10.841-2.682-10.841-9.226 0-6.544 4.301-9.227 10.841-9.227ZM62.569 26.353 68.16 2.407h18.533v40.117H76.206V9.873l-7.624 32.651H56.557l-7.619-32.63v32.63H38.451V2.407h18.527l5.591 23.945Zm113.868-12.316h-3.699v3.924h3.699c.936 0 1.494-.552 1.494-1.57v-.727c0-1.047-.481-1.627-1.494-1.627Zm.936 8.43h-9.575V2.406h14.085v4.798h-9.145V9.82h4.635c3.877 0 5.751 2.21 5.751 6.104 0 4.1-1.874 6.542-5.751 6.542Zm17.147-8.199h-3.901l1.95-7.412 1.951 7.412Zm7.497 8.199-5.395-20.059h-7.346l-5.396 20.059h4.611l.988-3.838h6.181l1.013 3.838h5.344Zm12.487 0v-7.762h-5.648v7.762h-5.067V2.407h5.067v7.355h5.648V2.407h5.068v20.059h-5.068Zm14.061-12.704h-.887V2.407h-5.067v20.058h5.067v-7.761h.734l4.686 7.761h5.853l-6.333-10.494 5.826-9.564h-5.346l-4.533 7.355Z" fill="#E30611"/></svg>