<svg width="45" height="45" viewBox="0 0 45 45" fill="none" xmlns="http://www.w3.org/2000/svg">
<path fill-rule="evenodd" clip-rule="evenodd" d="M11.25 0C12.4927 0 13.5 1.00737 13.5 2.25V4.5H31.5V2.25C31.5 1.00737 32.5073 0 33.75 0C34.9927 0 36 1.00737 36 2.25V4.50007C37.0328 4.5007 37.9334 4.50706 38.6888 4.56878C39.5784 4.64146 40.4631 4.80193 41.3145 5.2357C42.5846 5.88285 43.6172 6.91547 44.2643 8.18557C44.6981 9.03692 44.8585 9.92167 44.9312 10.8112C45 11.654 45 12.6772 45 13.8632V35.6368C45 36.8228 45 37.8461 44.9312 38.6887C44.8585 39.5784 44.6981 40.4631 44.2643 41.3145C43.6172 42.5846 42.5846 43.6171 41.3145 44.2642C40.4631 44.698 39.5784 44.8585 38.6888 44.9311C37.8461 45 36.8228 45 35.6369 45H9.36324C8.17718 45 7.15397 45 6.31118 44.9311C5.42167 44.8585 4.53693 44.698 3.68557 44.2642C2.41547 43.6171 1.38285 42.5846 0.735708 41.3145C0.30193 40.4631 0.14146 39.5784 0.0687848 38.6887C-6.51714e-05 37.8461 -4.27428e-05 36.8228 2.25721e-06 35.6366V13.8633C-4.27428e-05 12.6772 -6.51714e-05 11.654 0.0687848 10.8112C0.14146 9.92167 0.30193 9.03692 0.735708 8.18557C1.38285 6.91547 2.41547 5.88285 3.68557 5.2357C4.53693 4.80193 5.42167 4.64146 6.31118 4.56878C7.06669 4.50706 7.96719 4.5007 9 4.50007V2.25C9 1.00737 10.0074 0 11.25 0ZM9 9.00016C7.95353 9.00115 7.23821 9.00803 6.67764 9.05384C6.06639 9.10377 5.83979 9.18855 5.72853 9.24523C5.30516 9.46096 4.96096 9.80516 4.74525 10.2285C4.68855 10.3398 4.60377 10.5664 4.55384 11.1776C4.50176 11.8151 4.5 12.6528 4.5 13.95V35.55C4.5 36.8473 4.50176 37.6848 4.55384 38.3224C4.60377 38.9335 4.68855 39.1601 4.74525 39.2715C4.96096 39.695 5.30516 40.039 5.72853 40.2547C5.83979 40.3114 6.06639 40.3963 6.67764 40.4462C7.27745 40.4953 8.05437 40.4995 9.2246 40.5C9.22476 40.3524 9.23952 40.2025 9.27003 40.0525C10.521 33.8895 15.9662 29.25 22.5 29.25C29.0338 29.25 34.479 33.8895 35.73 40.0525C35.7604 40.2025 35.7752 40.3524 35.7755 40.5C36.9457 40.4995 37.7226 40.4953 38.3225 40.4462C38.9336 40.3963 39.1601 40.3114 39.2715 40.2547C39.695 40.039 40.039 39.695 40.2548 39.2715C40.3115 39.1601 40.3963 38.9335 40.4462 38.3224C40.4982 37.6848 40.5 36.8473 40.5 35.55V13.95C40.5 12.6528 40.4982 11.8151 40.4462 11.1776C40.3963 10.5664 40.3115 10.3398 40.2548 10.2285C40.039 9.80516 39.695 9.46096 39.2715 9.24523C39.1601 9.18855 38.9336 9.10377 38.3225 9.05384C37.7618 9.00803 37.0465 9.00115 36 9.00016C36 10.2427 34.9927 11.25 33.75 11.25C32.5073 11.25 31.5 10.2426 31.5 9H13.5C13.5 10.2426 12.4927 11.25 11.25 11.25C10.0074 11.25 9.00009 10.2427 9 9.00016ZM31.217 40.5C30.2186 36.6181 26.692 33.75 22.5 33.75C18.308 33.75 14.7813 36.6181 13.783 40.5H31.217ZM22.5 18C21.2573 18 20.25 19.0073 20.25 20.25C20.25 21.4927 21.2573 22.5 22.5 22.5C23.7427 22.5 24.75 21.4927 24.75 20.25C24.75 19.0073 23.7427 18 22.5 18ZM15.75 20.25C15.75 16.5221 18.772 13.5 22.5 13.5C26.228 13.5 29.25 16.5221 29.25 20.25C29.25 23.978 26.228 27 22.5 27C18.772 27 15.75 23.978 15.75 20.25Z" fill="#34C76C"/>
</svg>
