<svg width="45" height="45" viewBox="0 0 45 45" fill="none" xmlns="http://www.w3.org/2000/svg">
<path fill-rule="evenodd" clip-rule="evenodd" d="M22.5 4.5C12.5589 4.5 4.5 12.5589 4.5 22.5C4.5 32.4412 12.5589 40.5 22.5 40.5C32.4412 40.5 40.5 32.4412 40.5 22.5C40.5 12.5589 32.4412 4.5 22.5 4.5ZM0 22.5C0 10.0736 10.0736 0 22.5 0C34.9263 0 45 10.0736 45 22.5C45 34.9263 34.9263 45 22.5 45C10.0736 45 0 34.9263 0 22.5ZM31.966 13.034C32.8446 13.9127 32.8446 15.3373 31.966 16.216L16.216 31.966C15.3373 32.8446 13.9127 32.8446 13.034 31.966C12.1553 31.0873 12.1553 29.6627 13.034 28.784L28.784 13.034C29.6627 12.1553 31.0873 12.1553 31.966 13.034ZM13.5 16.875C13.5 15.011 15.011 13.5 16.875 13.5C18.7389 13.5 20.25 15.011 20.25 16.875C20.25 18.7389 18.7389 20.25 16.875 20.25C15.011 20.25 13.5 18.7389 13.5 16.875ZM24.75 28.125C24.75 26.2611 26.2611 24.75 28.125 24.75C29.9889 24.75 31.5 26.2611 31.5 28.125C31.5 29.9889 29.9889 31.5 28.125 31.5C26.2611 31.5 24.75 29.9889 24.75 28.125Z" fill="white"/>
</svg>
