<svg width="47" height="47" viewBox="0 0 47 47" fill="none" xmlns="http://www.w3.org/2000/svg">
<path d="M27.2793 21.2148C28.2501 21.2148 29.0371 20.4278 29.0371 19.457C29.0371 18.4862 28.2501 17.6992 27.2793 17.6992C26.3085 17.6992 25.5215 18.4862 25.5215 19.457C25.5215 20.4278 26.3085 21.2148 27.2793 21.2148Z" fill="#34C76C"/>
<path d="M27.2793 28.8613C28.2501 28.8613 29.0371 28.0743 29.0371 27.1035C29.0371 26.1327 28.2501 25.3457 27.2793 25.3457C26.3085 25.3457 25.5215 26.1327 25.5215 27.1035C25.5215 28.0743 26.3085 28.8613 27.2793 28.8613Z" fill="#34C76C"/>
<path d="M34.9258 21.2148C35.8966 21.2148 36.6836 20.4278 36.6836 19.457C36.6836 18.4862 35.8966 17.6992 34.9258 17.6992C33.955 17.6992 33.168 18.4862 33.168 19.457C33.168 20.4278 33.955 21.2148 34.9258 21.2148Z" fill="#34C76C"/>
<path d="M44.2422 22.9727C45.213 22.9727 46 22.1857 46 21.2148V11.5469C46 7.66984 42.8458 4.51562 38.9688 4.51562H36.6836V2.75781C36.6836 1.78697 35.8966 1 34.9258 1C33.9549 1 33.168 1.78697 33.168 2.75781V4.51562H25.1699V2.75781C25.1699 1.78697 24.3829 1 23.4121 1C22.4413 1 21.6543 1.78697 21.6543 2.75781V4.51562H13.7441V2.75781C13.7441 1.78697 12.9572 1 11.9863 1C11.0155 1 10.2285 1.78697 10.2285 2.75781V4.51562H8.03125C4.15422 4.51562 1 7.66984 1 11.5469V38.9688C1 42.8458 4.15422 46 8.03125 46H30.1797C30.2395 46 30.2987 45.9969 30.357 45.991C30.4149 45.9967 30.4729 46 30.5308 46C30.9995 46 31.4595 45.8124 31.7974 45.4615L45.5083 31.2232C45.9974 30.7154 46.1357 29.9645 45.8598 29.3159C45.5839 28.6673 44.9472 28.2461 44.2422 28.2461H35.8047C31.9277 28.2461 28.7734 31.4003 28.7734 35.2773V42.4844H8.03125C6.09273 42.4844 4.51562 40.9073 4.51562 38.9688V11.5469C4.51562 9.60836 6.09273 8.03125 8.03125 8.03125H10.2285V9.78906C10.2285 10.7599 11.0155 11.5469 11.9863 11.5469C12.9572 11.5469 13.7441 10.7599 13.7441 9.78906V8.03125H21.6543V9.78906C21.6543 10.7599 22.4413 11.5469 23.4121 11.5469C24.3829 11.5469 25.1699 10.7599 25.1699 9.78906V8.03125H33.168V9.78906C33.168 10.7599 33.9549 11.5469 34.9258 11.5469C35.8966 11.5469 36.6836 10.7599 36.6836 9.78906V8.03125H38.9688C40.9073 8.03125 42.4844 9.60836 42.4844 11.5469V21.2148C42.4844 22.1857 43.2713 22.9727 44.2422 22.9727ZM32.2891 35.2773C32.2891 33.3388 33.8662 31.7617 35.8047 31.7617H40.1091L32.2891 39.8826V35.2773Z" fill="#34C76C"/>
<path d="M11.9863 21.2148C12.9571 21.2148 13.7441 20.4278 13.7441 19.457C13.7441 18.4862 12.9571 17.6992 11.9863 17.6992C11.0155 17.6992 10.2285 18.4862 10.2285 19.457C10.2285 20.4278 11.0155 21.2148 11.9863 21.2148Z" fill="#34C76C"/>
<path d="M19.6328 28.8613C20.6036 28.8613 21.3906 28.0743 21.3906 27.1035C21.3906 26.1327 20.6036 25.3457 19.6328 25.3457C18.662 25.3457 17.875 26.1327 17.875 27.1035C17.875 28.0743 18.662 28.8613 19.6328 28.8613Z" fill="#34C76C"/>
<path d="M11.9863 36.5078C12.9571 36.5078 13.7441 35.7208 13.7441 34.75C13.7441 33.7792 12.9571 32.9922 11.9863 32.9922C11.0155 32.9922 10.2285 33.7792 10.2285 34.75C10.2285 35.7208 11.0155 36.5078 11.9863 36.5078Z" fill="#34C76C"/>
<path d="M11.9863 28.8613C12.9571 28.8613 13.7441 28.0743 13.7441 27.1035C13.7441 26.1327 12.9571 25.3457 11.9863 25.3457C11.0155 25.3457 10.2285 26.1327 10.2285 27.1035C10.2285 28.0743 11.0155 28.8613 11.9863 28.8613Z" fill="#34C76C"/>
<path d="M19.6328 36.5078C20.6036 36.5078 21.3906 35.7208 21.3906 34.75C21.3906 33.7792 20.6036 32.9922 19.6328 32.9922C18.662 32.9922 17.875 33.7792 17.875 34.75C17.875 35.7208 18.662 36.5078 19.6328 36.5078Z" fill="#34C76C"/>
<path d="M19.6328 21.2148C20.6036 21.2148 21.3906 20.4278 21.3906 19.457C21.3906 18.4862 20.6036 17.6992 19.6328 17.6992C18.662 17.6992 17.875 18.4862 17.875 19.457C17.875 20.4278 18.662 21.2148 19.6328 21.2148Z" fill="#34C76C"/>
<path d="M27.2793 21.2148C28.2501 21.2148 29.0371 20.4278 29.0371 19.457C29.0371 18.4862 28.2501 17.6992 27.2793 17.6992C26.3085 17.6992 25.5215 18.4862 25.5215 19.457C25.5215 20.4278 26.3085 21.2148 27.2793 21.2148Z" stroke="#34C76C"/>
<path d="M27.2793 28.8613C28.2501 28.8613 29.0371 28.0743 29.0371 27.1035C29.0371 26.1327 28.2501 25.3457 27.2793 25.3457C26.3085 25.3457 25.5215 26.1327 25.5215 27.1035C25.5215 28.0743 26.3085 28.8613 27.2793 28.8613Z" stroke="#34C76C"/>
<path d="M34.9258 21.2148C35.8966 21.2148 36.6836 20.4278 36.6836 19.457C36.6836 18.4862 35.8966 17.6992 34.9258 17.6992C33.955 17.6992 33.168 18.4862 33.168 19.457C33.168 20.4278 33.955 21.2148 34.9258 21.2148Z" stroke="#34C76C"/>
<path d="M44.2422 22.9727C45.213 22.9727 46 22.1857 46 21.2148V11.5469C46 7.66984 42.8458 4.51562 38.9688 4.51562H36.6836V2.75781C36.6836 1.78697 35.8966 1 34.9258 1C33.9549 1 33.168 1.78697 33.168 2.75781V4.51562H25.1699V2.75781C25.1699 1.78697 24.3829 1 23.4121 1C22.4413 1 21.6543 1.78697 21.6543 2.75781V4.51562H13.7441V2.75781C13.7441 1.78697 12.9572 1 11.9863 1C11.0155 1 10.2285 1.78697 10.2285 2.75781V4.51562H8.03125C4.15422 4.51562 1 7.66984 1 11.5469V38.9688C1 42.8458 4.15422 46 8.03125 46H30.1797C30.2395 46 30.2987 45.9969 30.357 45.991C30.4149 45.9967 30.4729 46 30.5308 46C30.9995 46 31.4595 45.8124 31.7974 45.4615L45.5083 31.2232C45.9974 30.7154 46.1357 29.9645 45.8598 29.3159C45.5839 28.6673 44.9472 28.2461 44.2422 28.2461H35.8047C31.9277 28.2461 28.7734 31.4003 28.7734 35.2773V42.4844H8.03125C6.09273 42.4844 4.51562 40.9073 4.51562 38.9688V11.5469C4.51562 9.60836 6.09273 8.03125 8.03125 8.03125H10.2285V9.78906C10.2285 10.7599 11.0155 11.5469 11.9863 11.5469C12.9572 11.5469 13.7441 10.7599 13.7441 9.78906V8.03125H21.6543V9.78906C21.6543 10.7599 22.4413 11.5469 23.4121 11.5469C24.3829 11.5469 25.1699 10.7599 25.1699 9.78906V8.03125H33.168V9.78906C33.168 10.7599 33.9549 11.5469 34.9258 11.5469C35.8966 11.5469 36.6836 10.7599 36.6836 9.78906V8.03125H38.9688C40.9073 8.03125 42.4844 9.60836 42.4844 11.5469V21.2148C42.4844 22.1857 43.2713 22.9727 44.2422 22.9727ZM32.2891 35.2773C32.2891 33.3388 33.8662 31.7617 35.8047 31.7617H40.1091L32.2891 39.8826V35.2773Z" stroke="#34C76C"/>
<path d="M11.9863 21.2148C12.9571 21.2148 13.7441 20.4278 13.7441 19.457C13.7441 18.4862 12.9571 17.6992 11.9863 17.6992C11.0155 17.6992 10.2285 18.4862 10.2285 19.457C10.2285 20.4278 11.0155 21.2148 11.9863 21.2148Z" stroke="#34C76C"/>
<path d="M19.6328 28.8613C20.6036 28.8613 21.3906 28.0743 21.3906 27.1035C21.3906 26.1327 20.6036 25.3457 19.6328 25.3457C18.662 25.3457 17.875 26.1327 17.875 27.1035C17.875 28.0743 18.662 28.8613 19.6328 28.8613Z" stroke="#34C76C"/>
<path d="M11.9863 36.5078C12.9571 36.5078 13.7441 35.7208 13.7441 34.75C13.7441 33.7792 12.9571 32.9922 11.9863 32.9922C11.0155 32.9922 10.2285 33.7792 10.2285 34.75C10.2285 35.7208 11.0155 36.5078 11.9863 36.5078Z" stroke="#34C76C"/>
<path d="M11.9863 28.8613C12.9571 28.8613 13.7441 28.0743 13.7441 27.1035C13.7441 26.1327 12.9571 25.3457 11.9863 25.3457C11.0155 25.3457 10.2285 26.1327 10.2285 27.1035C10.2285 28.0743 11.0155 28.8613 11.9863 28.8613Z" stroke="#34C76C"/>
<path d="M19.6328 36.5078C20.6036 36.5078 21.3906 35.7208 21.3906 34.75C21.3906 33.7792 20.6036 32.9922 19.6328 32.9922C18.662 32.9922 17.875 33.7792 17.875 34.75C17.875 35.7208 18.662 36.5078 19.6328 36.5078Z" stroke="#34C76C"/>
<path d="M19.6328 21.2148C20.6036 21.2148 21.3906 20.4278 21.3906 19.457C21.3906 18.4862 20.6036 17.6992 19.6328 17.6992C18.662 17.6992 17.875 18.4862 17.875 19.457C17.875 20.4278 18.662 21.2148 19.6328 21.2148Z" stroke="#34C76C"/>
</svg>
