<svg width="45" height="45" viewBox="0 0 45 45" fill="none" xmlns="http://www.w3.org/2000/svg">
<path fill-rule="evenodd" clip-rule="evenodd" d="M22.5 5C12.835 5 5 12.835 5 22.5C5 32.165 12.835 40 22.5 40C32.165 40 40 32.165 40 22.5C40 12.835 32.165 5 22.5 5ZM0 22.5C0 10.0736 10.0736 0 22.5 0C34.9265 0 45 10.0736 45 22.5C45 34.9265 34.9265 45 22.5 45C10.0736 45 0 34.9265 0 22.5ZM22.5 10C23.8808 10 25 11.1193 25 12.5V22.5C25 23.5112 24.391 24.4228 23.4568 24.8097C22.5225 25.1968 21.4473 24.9828 20.7323 24.2678L14.4822 18.0177C13.5059 17.0415 13.5059 15.4585 14.4822 14.4822C15.4585 13.5059 17.0415 13.5059 18.0177 14.4822L20 16.4645V12.5C20 11.1193 21.1192 10 22.5 10Z" fill="#34C76C"/>
</svg>
