<svg width="46" height="47" viewBox="0 0 46 47" fill="none" xmlns="http://www.w3.org/2000/svg">
<path d="M25.5818 46.1813H20.4182C19.5623 46.1813 18.7414 45.8413 18.1362 45.2361C17.531 44.6309 17.191 43.81 17.191 42.9541V40.3465C15.1274 39.6361 13.2128 38.5507 11.5433 37.1451L8.57101 38.8007C7.82929 39.2264 6.94915 39.3412 6.12305 39.1198C5.29695 38.8985 4.59209 38.3591 4.16261 37.6195L1.43236 32.8916C1.22053 32.5245 1.0831 32.1192 1.0279 31.699C0.972698 31.2787 1.00082 30.8518 1.11065 30.4424C1.22049 30.033 1.40988 29.6493 1.66802 29.3131C1.92617 28.977 2.248 28.6949 2.61514 28.4832L5.55516 26.784C5.35344 25.7315 5.25133 24.6623 5.25019 23.5907C5.25286 22.5076 5.35658 21.4272 5.56 20.3634L2.61353 18.6982C1.87232 18.2702 1.33147 17.5653 1.10996 16.7386C0.888452 15.9119 1.00442 15.031 1.43236 14.2898L4.16099 9.56348C4.37277 9.19633 4.65479 8.8745 4.99096 8.61636C5.32712 8.35822 5.71084 8.16882 6.12021 8.05899C6.52958 7.94915 6.95657 7.92103 7.3768 7.97623C7.79704 8.03143 8.20228 8.16887 8.5694 8.3807L11.5159 10.0815C13.1714 8.66514 15.077 7.57062 17.1345 6.85421L17.191 4.22724C17.191 3.37132 17.531 2.55046 18.1362 1.94524C18.7414 1.34001 19.5623 1 20.4182 1H25.5818C26.4377 1 27.2586 1.34001 27.8638 1.94524C28.469 2.55046 28.809 3.37132 28.809 4.22724V6.83485C30.8735 7.547 32.7883 8.63516 34.4567 10.0443L37.4274 8.38231C38.1684 7.95424 39.0491 7.83802 39.8758 8.05922C40.7025 8.28042 41.4075 8.82093 41.8358 9.56187L44.566 14.2898C44.7779 14.6569 44.9153 15.0621 44.9705 15.4824C45.0257 15.9026 44.9976 16.3296 44.8877 16.739C44.7779 17.1483 44.5885 17.5321 44.3304 17.8682C44.0722 18.2044 43.7504 18.4864 43.3832 18.6982L40.4432 20.3973C40.6455 21.4498 40.7481 22.519 40.7498 23.5907C40.7471 24.6737 40.6434 25.7541 40.44 26.8179L43.3865 28.4767C44.1277 28.9047 44.6685 29.6096 44.89 30.4363C45.1115 31.263 44.9956 32.1439 44.5676 32.8851L41.839 37.6114C41.4098 38.3513 40.7051 38.891 39.8789 39.1127C39.0528 39.3343 38.1725 39.2198 37.4306 38.7942L34.4841 37.0918C32.8295 38.5094 30.9237 39.604 28.8655 40.3191L28.809 42.9541C28.809 43.81 28.469 44.6309 27.8638 45.2361C27.2586 45.8413 26.4377 46.1813 25.5818 46.1813ZM11.4852 33.884C12.2691 33.885 13.0273 34.164 13.6249 34.6714C14.9765 35.8143 16.5265 36.6993 18.1979 37.2822C18.8401 37.5 19.3988 37.9121 19.7966 38.4613C20.1944 39.0106 20.4116 39.67 20.4182 40.3481V42.9541H25.5818V40.3465C25.5885 39.6686 25.8056 39.0095 26.203 38.4603C26.6005 37.9111 27.1587 37.4989 27.8005 37.2806C29.4728 36.6988 31.0236 35.8137 32.3751 34.6698C32.8829 34.2339 33.5125 33.9648 34.1784 33.899C34.8444 33.8332 35.5145 33.9738 36.0977 34.3019L39.0426 36.0042L41.7729 31.2763L38.8312 29.5772C38.2546 29.2491 37.7945 28.7498 37.5146 28.1483C37.2347 27.5469 37.1489 26.8732 37.2692 26.2209C37.607 24.4842 37.607 22.6987 37.2692 20.9621C37.149 20.3093 37.2347 19.6352 37.5145 19.0333C37.7944 18.4313 38.2546 17.9313 38.8312 17.6025L41.7729 15.9034L39.0426 11.1771L36.0977 12.8762C35.5147 13.2047 34.8447 13.3458 34.1787 13.2802C33.5127 13.2147 32.883 12.9458 32.3751 12.5099C31.024 11.3664 29.4738 10.4813 27.8021 9.89911C27.1599 9.68133 26.6012 9.26929 26.2034 8.72002C25.8056 8.17074 25.5884 7.51139 25.5818 6.83323V4.22724H20.4182V6.83485C20.4115 7.51275 20.1944 8.17184 19.797 8.72105C19.3995 9.27026 18.8413 9.68247 18.1995 9.90073C16.5276 10.4828 14.977 11.3672 13.6249 12.5099C13.1169 12.9461 12.4869 13.2153 11.8206 13.2808C11.1542 13.3463 10.4839 13.2051 9.90064 12.8762L6.95739 11.1771L4.22715 15.9034L7.16878 17.6041C7.74535 17.9322 8.20552 18.4316 8.48542 19.033C8.76531 19.6345 8.85106 20.3081 8.73076 20.9605C8.39299 22.6971 8.39299 24.4826 8.73076 26.2193C8.85105 26.8721 8.76532 27.5462 8.48546 28.1481C8.20559 28.75 7.74545 29.25 7.16878 29.5788L4.22715 31.278L6.95739 36.0042L9.90225 34.3051C10.3836 34.0279 10.9297 33.8826 11.4852 33.884Z" fill="#F8B917"/>
<path d="M23 35.6928C20.6064 35.6928 18.2666 34.983 16.2764 33.6532C14.2862 32.3234 12.7351 30.4333 11.8191 28.222C10.9031 26.0106 10.6634 23.5772 11.1304 21.2297C11.5974 18.8821 12.75 16.7257 14.4425 15.0332C16.135 13.3406 18.2914 12.188 20.639 11.7211C22.9866 11.2541 25.4199 11.4938 27.6313 12.4097C29.8427 13.3257 31.7328 14.8769 33.0626 16.8671C34.3924 18.8573 35.1021 21.1971 35.1021 23.5907C35.0987 26.7993 33.8226 29.8756 31.5537 32.1444C29.2849 34.4133 26.2086 35.6894 23 35.6928ZM23 14.7158C21.2447 14.7158 19.5288 15.2363 18.0694 16.2115C16.6099 17.1866 15.4724 18.5727 14.8007 20.1944C14.1289 21.8161 13.9532 23.6005 14.2956 25.3221C14.6381 27.0436 15.4833 28.625 16.7245 29.8662C17.9657 31.1074 19.547 31.9526 21.2686 32.2951C22.9902 32.6375 24.7746 32.4617 26.3963 31.79C28.018 31.1183 29.404 29.9808 30.3792 28.5213C31.3544 27.0618 31.8749 25.346 31.8749 23.5907C31.8723 21.2377 30.9365 18.9818 29.2727 17.318C27.6089 15.6542 25.353 14.7183 23 14.7158Z" fill="#F8B917"/>
<path d="M23.0307 19.7702H22.8008C22.7905 20.3407 22.7803 20.916 22.7701 21.496C22.7701 22.0761 22.7701 22.6609 22.7701 23.2504V23.5642H22.9387C23.5722 23.5642 24.0473 23.393 24.364 23.0507C24.6807 22.6989 24.8391 22.233 24.8391 21.6529C24.8391 21.0349 24.6756 20.5689 24.3487 20.2551C24.0217 19.9319 23.5824 19.7702 23.0307 19.7702ZM19.1992 19.7274V19H23.1073C24.4866 19 25.4776 19.2425 26.0805 19.7274C26.6935 20.2124 27 20.8685 27 21.6957C27 22.2092 26.8672 22.6704 26.6015 23.0792C26.3461 23.4786 25.9272 23.7971 25.3448 24.0349C24.7625 24.2631 23.9911 24.3772 23.0307 24.3772H22.7701C22.7701 24.5293 22.7701 24.6862 22.7701 24.8479C22.7701 25.0095 22.7701 25.1712 22.7701 25.3328H25.4981V26.1458H22.7854C22.7854 26.3074 22.7854 26.4739 22.7854 26.645C22.7854 26.8067 22.7854 26.9683 22.7854 27.13L24.1494 27.2726V28H19.1992V27.2726L20.3027 27.1585C20.3129 26.9873 20.318 26.8209 20.318 26.6593C20.318 26.4881 20.318 26.317 20.318 26.1458H19V25.3328H20.3333C20.3333 25.1712 20.3333 25.0095 20.3333 24.8479C20.3333 24.6862 20.3333 24.5293 20.3333 24.3772H19V23.5642H20.3333V23.2504C20.3333 22.6894 20.3333 22.1236 20.3333 21.5531C20.3333 20.9731 20.3231 20.4025 20.3027 19.8415L19.1992 19.7274Z" fill="#F8B917"/>
<path d="M25.5818 46.1813H20.4182C19.5623 46.1813 18.7414 45.8413 18.1362 45.2361C17.531 44.6309 17.191 43.81 17.191 42.9541V40.3465C15.1274 39.6361 13.2128 38.5507 11.5433 37.1451L8.57101 38.8007C7.82929 39.2264 6.94915 39.3412 6.12305 39.1198C5.29695 38.8985 4.59209 38.3591 4.16261 37.6195L1.43236 32.8916C1.22053 32.5245 1.0831 32.1192 1.0279 31.699C0.972698 31.2787 1.00082 30.8518 1.11065 30.4424C1.22049 30.033 1.40988 29.6493 1.66802 29.3131C1.92617 28.977 2.248 28.6949 2.61514 28.4832L5.55516 26.784C5.35344 25.7315 5.25133 24.6623 5.25019 23.5907C5.25286 22.5076 5.35658 21.4272 5.56 20.3634L2.61353 18.6982C1.87232 18.2702 1.33147 17.5653 1.10996 16.7386C0.888452 15.9119 1.00442 15.031 1.43236 14.2898L4.16099 9.56348C4.37277 9.19633 4.65479 8.8745 4.99096 8.61636C5.32712 8.35822 5.71084 8.16882 6.12021 8.05899C6.52958 7.94915 6.95657 7.92103 7.3768 7.97623C7.79704 8.03143 8.20228 8.16887 8.5694 8.3807L11.5159 10.0815C13.1714 8.66514 15.077 7.57062 17.1345 6.85421L17.191 4.22724C17.191 3.37132 17.531 2.55046 18.1362 1.94524C18.7414 1.34001 19.5623 1 20.4182 1H25.5818C26.4377 1 27.2586 1.34001 27.8638 1.94524C28.469 2.55046 28.809 3.37132 28.809 4.22724V6.83485C30.8735 7.547 32.7883 8.63516 34.4567 10.0443L37.4274 8.38231C38.1684 7.95424 39.0491 7.83802 39.8758 8.05922C40.7025 8.28042 41.4075 8.82093 41.8358 9.56187L44.566 14.2898C44.7779 14.6569 44.9153 15.0621 44.9705 15.4824C45.0257 15.9026 44.9976 16.3296 44.8877 16.739C44.7779 17.1483 44.5885 17.5321 44.3304 17.8682C44.0722 18.2044 43.7504 18.4864 43.3832 18.6982L40.4432 20.3973C40.6455 21.4498 40.7481 22.519 40.7498 23.5907C40.7471 24.6737 40.6434 25.7541 40.44 26.8179L43.3865 28.4767C44.1277 28.9047 44.6685 29.6096 44.89 30.4363C45.1115 31.263 44.9956 32.1439 44.5676 32.8851L41.839 37.6114C41.4098 38.3513 40.7051 38.891 39.8789 39.1127C39.0528 39.3343 38.1725 39.2198 37.4306 38.7942L34.4841 37.0918C32.8295 38.5094 30.9237 39.604 28.8655 40.3191L28.809 42.9541C28.809 43.81 28.469 44.6309 27.8638 45.2361C27.2586 45.8413 26.4377 46.1813 25.5818 46.1813ZM11.4852 33.884C12.2691 33.885 13.0273 34.164 13.6249 34.6714C14.9765 35.8143 16.5265 36.6993 18.1979 37.2822C18.8401 37.5 19.3988 37.9121 19.7966 38.4613C20.1944 39.0106 20.4116 39.67 20.4182 40.3481V42.9541H25.5818V40.3465C25.5885 39.6686 25.8056 39.0095 26.203 38.4603C26.6005 37.9111 27.1587 37.4989 27.8005 37.2806C29.4728 36.6988 31.0236 35.8137 32.3751 34.6698C32.8829 34.2339 33.5125 33.9648 34.1784 33.899C34.8444 33.8332 35.5145 33.9738 36.0977 34.3019L39.0426 36.0042L41.7729 31.2763L38.8312 29.5772C38.2546 29.2491 37.7945 28.7498 37.5146 28.1483C37.2347 27.5469 37.1489 26.8732 37.2692 26.2209C37.607 24.4842 37.607 22.6987 37.2692 20.9621C37.149 20.3093 37.2347 19.6352 37.5145 19.0333C37.7944 18.4313 38.2546 17.9313 38.8312 17.6025L41.7729 15.9034L39.0426 11.1771L36.0977 12.8762C35.5147 13.2047 34.8447 13.3458 34.1787 13.2802C33.5127 13.2147 32.883 12.9458 32.3751 12.5099C31.024 11.3664 29.4738 10.4813 27.8021 9.89911C27.1599 9.68133 26.6012 9.26929 26.2034 8.72002C25.8056 8.17074 25.5884 7.51139 25.5818 6.83323V4.22724H20.4182V6.83485C20.4115 7.51275 20.1944 8.17184 19.797 8.72105C19.3995 9.27026 18.8413 9.68247 18.1995 9.90073C16.5276 10.4828 14.977 11.3672 13.6249 12.5099C13.1169 12.9461 12.4869 13.2153 11.8206 13.2808C11.1542 13.3463 10.4839 13.2051 9.90064 12.8762L6.95739 11.1771L4.22715 15.9034L7.16878 17.6041C7.74535 17.9322 8.20552 18.4316 8.48542 19.033C8.76531 19.6345 8.85106 20.3081 8.73076 20.9605C8.39299 22.6971 8.39299 24.4826 8.73076 26.2193C8.85105 26.8721 8.76532 27.5462 8.48546 28.1481C8.20559 28.75 7.74545 29.25 7.16878 29.5788L4.22715 31.278L6.95739 36.0042L9.90225 34.3051C10.3836 34.0279 10.9297 33.8826 11.4852 33.884Z" stroke="#F8B917"/>
<path d="M23 35.6928C20.6064 35.6928 18.2666 34.983 16.2764 33.6532C14.2862 32.3234 12.7351 30.4333 11.8191 28.222C10.9031 26.0106 10.6634 23.5772 11.1304 21.2297C11.5974 18.8821 12.75 16.7257 14.4425 15.0332C16.135 13.3406 18.2914 12.188 20.639 11.7211C22.9866 11.2541 25.4199 11.4938 27.6313 12.4097C29.8427 13.3257 31.7328 14.8769 33.0626 16.8671C34.3924 18.8573 35.1021 21.1971 35.1021 23.5907C35.0987 26.7993 33.8226 29.8756 31.5537 32.1444C29.2849 34.4133 26.2086 35.6894 23 35.6928ZM23 14.7158C21.2447 14.7158 19.5288 15.2363 18.0694 16.2115C16.6099 17.1866 15.4724 18.5727 14.8007 20.1944C14.1289 21.8161 13.9532 23.6005 14.2956 25.3221C14.6381 27.0436 15.4833 28.625 16.7245 29.8662C17.9657 31.1074 19.547 31.9526 21.2686 32.2951C22.9902 32.6375 24.7746 32.4617 26.3963 31.79C28.018 31.1183 29.404 29.9808 30.3792 28.5213C31.3544 27.0618 31.8749 25.346 31.8749 23.5907C31.8723 21.2377 30.9365 18.9818 29.2727 17.318C27.6089 15.6542 25.353 14.7183 23 14.7158Z" stroke="#F8B917"/>
<path d="M23.0307 19.7702H22.8008C22.7905 20.3407 22.7803 20.916 22.7701 21.496C22.7701 22.0761 22.7701 22.6609 22.7701 23.2504V23.5642H22.9387C23.5722 23.5642 24.0473 23.393 24.364 23.0507C24.6807 22.6989 24.8391 22.233 24.8391 21.6529C24.8391 21.0349 24.6756 20.5689 24.3487 20.2551C24.0217 19.9319 23.5824 19.7702 23.0307 19.7702ZM19.1992 19.7274V19H23.1073C24.4866 19 25.4776 19.2425 26.0805 19.7274C26.6935 20.2124 27 20.8685 27 21.6957C27 22.2092 26.8672 22.6704 26.6015 23.0792C26.3461 23.4786 25.9272 23.7971 25.3448 24.0349C24.7625 24.2631 23.9911 24.3772 23.0307 24.3772H22.7701C22.7701 24.5293 22.7701 24.6862 22.7701 24.8479C22.7701 25.0095 22.7701 25.1712 22.7701 25.3328H25.4981V26.1458H22.7854C22.7854 26.3074 22.7854 26.4739 22.7854 26.645C22.7854 26.8067 22.7854 26.9683 22.7854 27.13L24.1494 27.2726V28H19.1992V27.2726L20.3027 27.1585C20.3129 26.9873 20.318 26.8209 20.318 26.6593C20.318 26.4881 20.318 26.317 20.318 26.1458H19V25.3328H20.3333C20.3333 25.1712 20.3333 25.0095 20.3333 24.8479C20.3333 24.6862 20.3333 24.5293 20.3333 24.3772H19V23.5642H20.3333V23.2504C20.3333 22.6894 20.3333 22.1236 20.3333 21.5531C20.3333 20.9731 20.3231 20.4025 20.3027 19.8415L19.1992 19.7274Z" stroke="#F8B917"/>
</svg>
