<svg width="31" height="30" fill="none" xmlns="http://www.w3.org/2000/svg"><path fill-rule="evenodd" clip-rule="evenodd" d="M29.452 26.388c-.199.198-.44.452-.694.721-.636.675-1.43 1.513-1.927 1.853-2.619 1.79-6.122.933-8.6-.1-3.269-1.361-6.828-3.872-10.023-7.067-3.199-3.197-5.71-6.757-7.071-10.024-1.032-2.478-1.89-5.982-.1-8.601.34-.498 1.18-1.291 1.854-1.928.27-.254.522-.494.72-.693a1.887 1.887 0 0 1 2.663 0l4.818 4.817a1.887 1.887 0 0 1 0 2.662L9.78 9.338a2.867 2.867 0 0 0-.507 3.39 19.248 19.248 0 0 0 8 7.999 2.865 2.865 0 0 0 3.389-.508l1.31-1.31a1.888 1.888 0 0 1 2.662 0l4.818 4.818a1.887 1.887 0 0 1 0 2.66Z" fill="#FFC051"/></svg>