<svg width="47" height="47" fill="none" xmlns="http://www.w3.org/2000/svg"><path d="M44.594 1h-26.42a3.671 3.671 0 0 0-2.812 1.381l-7.807 9.344a4.58 4.58 0 0 0 .295 6.03 4.28 4.28 0 0 0 6.024-.07c1.185 5.118 5.732 8.76 10.999 8.81h.12a11.42 11.42 0 0 0 10.614-7.267h1.956c0 .775.63 1.402 1.406 1.402h5.625c.777 0 1.406-.627 1.406-1.402V2.402C46 1.628 45.37 1 44.594 1Zm-19.6 22.696h-.088c-4.757-.05-8.572-3.936-8.521-8.68 0-.081.01-.163.012-.244l4.597-5.328h7.78l.76.613-4.065.758a4.212 4.212 0 0 0-4.148 4.277 4.214 4.214 0 0 0 4.288 4.136h6.915a8.622 8.622 0 0 1-7.53 4.468Zm.615-7.272a1.404 1.404 0 0 1-1.406-1.402c0-.775.63-1.402 1.406-1.402.088 0 .176-.009.262-.026l7.172-1.357a1.4 1.4 0 0 0 .62-2.47l-3.516-2.825a1.4 1.4 0 0 0-.881-.31h-8.921c-.409 0-.797.178-1.064.487l-7.453 8.653a1.449 1.449 0 0 1-1.988 0 1.764 1.764 0 0 1-.121-2.259l7.804-9.343a.885.885 0 0 1 .654-.366h19.386v12.62H25.608Zm17.578 1.402h-2.812V3.804h2.813v14.022ZM33.25 29.184l-7.078 5.576h-.792a4.197 4.197 0 0 0-.508-3.763 4.222 4.222 0 0 0-3.34-1.822l-7.622-1.381a1.395 1.395 0 0 0-.254-.022H9.437c0-.775-.629-1.402-1.406-1.402H2.406C1.63 26.37 1 26.997 1 27.772v16.826C1 45.372 1.63 46 2.406 46h26.367v-1.402L28.826 46a3.675 3.675 0 0 0 2.812-1.38l7.805-9.344a4.58 4.58 0 0 0-.295-6.03 4.338 4.338 0 0 0-5.898-.062Zm-29.438-.01h2.813v14.022H3.812V29.174Zm33.47 4.312-7.805 9.344a.883.883 0 0 1-.651.363H9.437v-12.62h4.093l7.609 1.38c.083.015.168.022.252.023a1.402 1.402 0 0 1 .252 2.782l-7.416-.023h-.008a1.404 1.404 0 0 0-1.41 1.398 1.404 1.404 0 0 0 1.401 1.406l7.18.045c.141 0 .295-.008.437-.022h4.829c.316 0 .624-.107.872-.303l7.523-5.926c.042-.034.083-.07.122-.108a1.45 1.45 0 0 1 1.989 0c.582.626.632 1.577.12 2.26Z" fill="#34C76C"/><path d="M44.594 1h-26.42a3.671 3.671 0 0 0-2.812 1.381l-7.807 9.344a4.58 4.58 0 0 0 .295 6.03 4.28 4.28 0 0 0 6.024-.07c1.185 5.118 5.732 8.76 10.999 8.81h.12a11.42 11.42 0 0 0 10.614-7.267h1.956c0 .775.63 1.402 1.406 1.402h5.625c.777 0 1.406-.627 1.406-1.402V2.402C46 1.628 45.37 1 44.594 1Zm-19.6 22.696h-.088c-4.757-.05-8.572-3.936-8.521-8.68 0-.081.01-.163.012-.244l4.597-5.328h7.78l.76.613-4.065.758a4.212 4.212 0 0 0-4.148 4.277 4.214 4.214 0 0 0 4.288 4.136h6.915a8.622 8.622 0 0 1-7.53 4.468Zm.615-7.272a1.404 1.404 0 0 1-1.406-1.402c0-.775.63-1.402 1.406-1.402.088 0 .176-.009.262-.026l7.172-1.357a1.4 1.4 0 0 0 .62-2.47l-3.516-2.825a1.4 1.4 0 0 0-.881-.31h-8.921c-.409 0-.797.178-1.064.487l-7.453 8.653a1.449 1.449 0 0 1-1.988 0 1.764 1.764 0 0 1-.121-2.259l7.804-9.343a.885.885 0 0 1 .654-.366h19.386v12.62H25.608Zm17.578 1.402h-2.812V3.804h2.813v14.022ZM33.25 29.184l-7.078 5.576h-.792a4.197 4.197 0 0 0-.508-3.763 4.222 4.222 0 0 0-3.34-1.822l-7.622-1.381a1.395 1.395 0 0 0-.254-.022H9.437c0-.775-.629-1.402-1.406-1.402H2.406C1.63 26.37 1 26.997 1 27.772v16.826C1 45.372 1.63 46 2.406 46h26.367v-1.402L28.826 46a3.675 3.675 0 0 0 2.812-1.38l7.805-9.344a4.58 4.58 0 0 0-.295-6.03 4.338 4.338 0 0 0-5.898-.062Zm-29.438-.01h2.813v14.022H3.812V29.174Zm33.47 4.312-7.805 9.344a.883.883 0 0 1-.651.363H9.437v-12.62h4.093l7.609 1.38c.083.015.168.022.252.023a1.402 1.402 0 0 1 .252 2.782l-7.416-.023h-.008a1.404 1.404 0 0 0-1.41 1.398 1.404 1.404 0 0 0 1.401 1.406l7.18.045c.141 0 .295-.008.437-.022h4.829c.316 0 .624-.107.872-.303l7.523-5.926c.042-.034.083-.07.122-.108a1.45 1.45 0 0 1 1.989 0c.582.626.632 1.577.12 2.26Z" stroke="#34C76C" stroke-width="1.2"/></svg>