<svg width="41" height="45" fill="none" xmlns="http://www.w3.org/2000/svg"><path fill-rule="evenodd" clip-rule="evenodd" d="M6.75 0h27a6.75 6.75 0 0 1 6.75 6.75v31.5A6.75 6.75 0 0 1 33.75 45h-27A6.75 6.75 0 0 1 0 38.25V6.75A6.75 6.75 0 0 1 6.75 0Zm0 4.5A2.25 2.25 0 0 0 4.5 6.75v6.75H36V6.75a2.25 2.25 0 0 0-2.25-2.25h-27ZM36 18H4.5v20.25a2.25 2.25 0 0 0 2.25 2.25h27A2.25 2.25 0 0 0 36 38.25V18ZM6.75 24.75a3.375 3.375 0 1 1 6.75 0 3.375 3.375 0 0 1-6.75 0Zm13.5-3.375a3.375 3.375 0 1 0 0 6.75 3.375 3.375 0 0 0 0-6.75ZM27 24.75a3.375 3.375 0 0 1 6.75 0v9a3.375 3.375 0 0 1-6.75 0v-9Zm-16.875 5.625a3.375 3.375 0 1 0 0 6.75 3.375 3.375 0 0 0 0-6.75Zm6.75 3.375a3.375 3.375 0 1 1 6.75 0 3.375 3.375 0 0 1-6.75 0Z" fill="#212121"/></svg>