<svg width="15" height="8" viewBox="0 0 15 8" fill="none" xmlns="http://www.w3.org/2000/svg">
<path d="M2.06194 0.34154C1.83247 0.119909 1.52513 -0.00272614 1.20612 4.59941e-05C0.887106 0.00281813 0.581945 0.130776 0.356361 0.35636C0.130777 0.581945 0.00281813 0.887106 4.59939e-05 1.20612C-0.00272614 1.52513 0.11991 1.83247 0.34154 2.06194L5.56601 7.28641C6.51625 8.23665 8.05171 8.23908 9.00438 7.28641L14.2289 2.06194C14.4505 1.83247 14.5731 1.52513 14.5703 1.20612C14.5676 0.887106 14.4396 0.581945 14.214 0.35636C13.9884 0.130776 13.6833 0.00281813 13.3643 4.59941e-05C13.0453 -0.00272614 12.7379 0.119909 12.5084 0.34154L7.2852 5.56479L2.06194 0.34154Z" fill="#828282"/>
</svg>
