<svg width="15" height="16" viewBox="0 0 15 16" fill="none" xmlns="http://www.w3.org/2000/svg">
<path d="M14.8497 1.86013C14.9459 1.94863 15 2.0685 15 2.19346C15 2.31843 14.9459 2.43829 14.8497 2.52679L13.7751 3.51262L11.7146 1.62406L12.7892 0.638236C12.8858 0.549724 13.0168 0.5 13.1534 0.5C13.29 0.5 13.421 0.549724 13.5176 0.638236L14.8497 1.86013ZM13.0467 4.17928L10.9862 2.29072L3.96712 8.72503C3.91041 8.77699 3.86773 8.84037 3.84245 8.91011L3.0131 11.1896C2.99806 11.2312 2.99592 11.2757 3.00693 11.3183C3.01794 11.3609 3.04166 11.3999 3.07544 11.4309C3.10922 11.4618 3.15172 11.4836 3.19821 11.4936C3.24469 11.5037 3.29332 11.5018 3.33866 11.488L5.82569 10.7278C5.90169 10.705 5.97083 10.6662 6.02762 10.6145L13.0467 4.17928Z" fill="#828282"/>
<path fill-rule="evenodd" clip-rule="evenodd" d="M0 14C0 14.3978 0.158035 14.7794 0.43934 15.0607C0.720644 15.342 1.10218 15.5 1.5 15.5H12.5C12.8978 15.5 13.2794 15.342 13.5607 15.0607C13.842 14.7794 14 14.3978 14 14V8C14 7.86739 13.9473 7.74021 13.8536 7.64645C13.7598 7.55268 13.6326 7.5 13.5 7.5C13.3674 7.5 13.2402 7.55268 13.1464 7.64645C13.0527 7.74021 13 7.86739 13 8V14C13 14.1326 12.9473 14.2598 12.8536 14.3536C12.7598 14.4473 12.6326 14.5 12.5 14.5H1.5C1.36739 14.5 1.24021 14.4473 1.14645 14.3536C1.05268 14.2598 1 14.1326 1 14V3C1 2.86739 1.05268 2.74021 1.14645 2.64645C1.24021 2.55268 1.36739 2.5 1.5 2.5H8C8.13261 2.5 8.25979 2.44732 8.35355 2.35355C8.44732 2.25979 8.5 2.13261 8.5 2C8.5 1.86739 8.44732 1.74021 8.35355 1.64645C8.25979 1.55268 8.13261 1.5 8 1.5H1.5C1.10218 1.5 0.720644 1.65804 0.43934 1.93934C0.158035 2.22064 0 2.60218 0 3V14Z" fill="#828282"/>
</svg>
