<svg width="137" height="52" viewBox="0 0 137 52" fill="none" xmlns="http://www.w3.org/2000/svg">
<path d="M6.58547 25.9418L6.44005 25.0878L8.13431 24.7993C8.15937 24.7951 8.1909 24.7884 8.22891 24.7794C8.26817 24.7676 8.31097 24.7463 8.3573 24.7155C8.47292 24.6372 8.54546 24.5281 8.57491 24.3881C8.60604 24.2478 8.60622 24.0873 8.57545 23.9066C8.55775 23.8026 8.52939 23.6967 8.49037 23.5887C8.45302 23.4804 8.40191 23.3872 8.33703 23.3091C8.27173 23.2286 8.18997 23.1775 8.09175 23.1561C8.04327 23.1439 7.99626 23.1405 7.95072 23.1457C7.90519 23.1509 7.87323 23.1551 7.85485 23.1582L6.94256 23.3135L6.78196 22.3704L7.72433 22.21C7.7377 22.2077 7.77383 22.2028 7.83273 22.1953C7.89164 22.1879 7.95744 22.1856 8.03015 22.1885C8.2537 22.1988 8.44789 22.274 8.61272 22.414C8.77879 22.5513 8.91528 22.7369 9.02217 22.9709C9.12907 23.2048 9.20738 23.4679 9.25712 23.76C9.33425 24.2129 9.32062 24.5973 9.21622 24.9131C9.11348 25.2286 8.90991 25.4467 8.6055 25.5673C8.53785 25.5941 8.475 25.6137 8.41694 25.6261C8.35888 25.6386 8.32317 25.6459 8.3098 25.6482L6.58547 25.9418ZM6.79664 27.1819L6.66387 26.4022L8.86941 26.0267L9 26.5L6.79664 27.1819ZM7.26133 27.7905L6.35088 22.4439L7.03259 22.3278L8 27.5L7.26133 27.7905Z" fill="#159C4B"/>
<path fill-rule="evenodd" clip-rule="evenodd" d="M7.47536 19.5335C8.92701 19.4011 10.3117 21.6037 10.5696 24.4529C10.8269 27.3021 9.85931 29.7192 8.40766 29.851C6.95671 29.9841 5.57129 27.7808 5.31408 24.9323C5.05616 22.0831 6.0237 19.666 7.47536 19.5335ZM8.18921 37.9C4.74187 33.0776 3.01186 27.5181 3.07035 21.9231C3.08797 20.2842 3.25851 18.6419 3.58478 17.0144C3.89061 15.0554 4.50157 13.129 5.41274 11.2947L15.291 16.2792C14.3503 17.9804 13.609 19.7524 13.0741 21.5661C11.9628 25.3318 11.7352 29.278 12.4357 33.1506C12.423 32.7427 12.4194 32.334 12.4258 31.9239C12.4815 28.3368 13.2538 24.8141 14.6836 21.5088C15.5588 19.4839 16.6814 17.5406 18.0365 15.7155L4.59459 8.93421C2.54466 13.0575 1.61165 17.5264 1.82658 21.9677C1.96399 24.7999 2.56791 27.6208 3.64608 30.3333C4.73694 33.0769 6.27527 35.6223 8.1885 37.9007L8.18921 37.9ZM4.00547 6.45754C15.6286 12.3217 21.4409 15.253 21.4409 15.253C12.8535 25.1915 12.6414 38.9772 20.9208 49C12.0657 45.711 5.19146 39.23 1.97527 31.1399C-1.24163 23.0506 -0.504526 14.0943 4.00547 6.45754Z" fill="#159C4B"/>
<path fill-rule="evenodd" clip-rule="evenodd" d="M30.9597 14.9825C30.4044 15.3656 29.2847 16.2438 28.7682 16.6546L34.5868 19.792C26.5435 24.4033 22.1864 33.1818 22.4161 42.485C21.0779 34.5543 23.5972 26.239 29.5793 20.3728L26.7288 18.5491C19.6791 25.8134 17.6362 36.1159 21.1899 45.774C15.5799 35.8759 17.8032 22.8856 25.9156 14.9286L8.39282 5.75003C10.2687 4.18485 10.4907 4 10.4907 4L30.9597 14.9825Z" fill="#212121"/>
<path d="M56.6867 19.9L55.8117 16.175C55.6617 15.4917 55.3783 15 54.9617 14.7C54.5617 14.4 54.045 14.25 53.4117 14.25H52.5367C52.5367 15.3667 52.5367 16.4417 52.5367 17.475C52.5533 18.4917 52.57 19.4917 52.5867 20.475L54.3367 20.65V22H46.4117V20.65L48.2867 20.45C48.32 19.4333 48.3367 18.4083 48.3367 17.375C48.3367 16.3417 48.3367 15.3 48.3367 14.25V13.325C48.3367 12.2917 48.3367 11.2583 48.3367 10.225C48.3367 9.19167 48.32 8.15833 48.2867 7.125L46.4117 6.925V5.575H54.3367V6.925L52.5867 7.1C52.57 8.03333 52.5533 8.98333 52.5367 9.95C52.5367 10.9 52.5367 11.8667 52.5367 12.85H53.2117C53.7117 12.85 54.145 12.7833 54.5117 12.65C54.8783 12.5167 55.2117 12.2333 55.5117 11.8C55.8117 11.3667 56.1033 10.7167 56.3867 9.85C56.92 8.26667 57.4617 7.11667 58.0117 6.4C58.5617 5.66667 59.1783 5.23333 59.8617 5.1C61.3283 5.13333 62.0617 5.775 62.0617 7.025C62.0617 7.54167 61.8617 7.99167 61.4617 8.375C61.0617 8.74167 60.4283 8.925 59.5617 8.925C59.145 8.925 58.7533 8.88333 58.3867 8.8C58.1367 9.26667 57.895 9.83333 57.6617 10.5C57.3783 11.3 57.0617 11.9417 56.7117 12.425C56.3617 12.8917 55.92 13.2417 55.3867 13.475C56.87 13.6583 57.995 14.0833 58.7617 14.75C59.545 15.4167 60.07 16.4083 60.3367 17.725L60.9867 20.5L62.9117 20.65V22C62.4283 22.1333 61.9617 22.225 61.5117 22.275C61.0783 22.325 60.67 22.35 60.2867 22.35C59.2867 22.35 58.4867 22.2 57.8867 21.9C57.3033 21.6 56.9033 20.9333 56.6867 19.9ZM62.9865 27.675V26.5L64.3865 26.2C64.4031 25.4167 64.4115 24.6833 64.4115 24C64.4281 23.3333 64.4365 22.6917 64.4365 22.075V15.3C64.4365 14.6167 64.4281 14.0917 64.4115 13.725C64.4115 13.3417 64.3948 12.9 64.3615 12.4L62.8115 12.175V11.2L67.7115 9.525L68.1365 9.775L68.2365 11.175C69.2865 10.075 70.5198 9.525 71.9365 9.525C72.8531 9.525 73.6781 9.76667 74.4115 10.25C75.1448 10.7333 75.7281 11.45 76.1615 12.4C76.6115 13.35 76.8365 14.5167 76.8365 15.9C76.8365 17.2333 76.5865 18.3917 76.0865 19.375C75.5865 20.3417 74.9281 21.0833 74.1115 21.6C73.3115 22.1167 72.4365 22.375 71.4865 22.375C70.2031 22.375 69.1531 21.9417 68.3365 21.075V22.05C68.3365 22.6667 68.3365 23.3083 68.3365 23.975C68.3531 24.6417 68.3698 25.3583 68.3865 26.125L69.9865 26.5V27.675H62.9865ZM70.1115 11.7C69.7948 11.7 69.4948 11.7667 69.2115 11.9C68.9448 12.0333 68.6781 12.2 68.4115 12.4V19.65C68.9115 20.0667 69.4531 20.275 70.0365 20.275C70.7865 20.275 71.3948 19.925 71.8615 19.225C72.3448 18.525 72.5865 17.4333 72.5865 15.95C72.5865 14.4667 72.3531 13.3917 71.8865 12.725C71.4365 12.0417 70.8448 11.7 70.1115 11.7ZM84.6156 10.825C84.1489 10.825 83.7156 11.1167 83.3156 11.7C82.9322 12.2667 82.7156 13.3167 82.6656 14.85H84.7906C85.3906 14.85 85.7906 14.7333 85.9906 14.5C86.2072 14.25 86.3156 13.8417 86.3156 13.275C86.3156 12.4417 86.1489 11.825 85.8156 11.425C85.4822 11.025 85.0822 10.825 84.6156 10.825ZM84.6656 22.375C83.4489 22.375 82.3739 22.125 81.4406 21.625C80.5072 21.1083 79.7739 20.375 79.2406 19.425C78.7072 18.4583 78.4406 17.3083 78.4406 15.975C78.4406 14.575 78.7489 13.4 79.3656 12.45C79.9989 11.4833 80.8072 10.7583 81.7906 10.275C82.7739 9.775 83.7989 9.525 84.8656 9.525C85.9656 9.525 86.8989 9.75833 87.6656 10.225C88.4489 10.6917 89.0406 11.325 89.4406 12.125C89.8406 12.9083 90.0406 13.8083 90.0406 14.825C90.0406 15.3083 89.9906 15.75 89.8906 16.15H82.6656C82.7489 17.4667 83.1072 18.4417 83.7406 19.075C84.3906 19.6917 85.1489 20 86.0156 20C86.6989 20 87.2822 19.875 87.7656 19.625C88.2489 19.3583 88.6739 19.0333 89.0406 18.65L89.9156 19.45C89.3989 20.4333 88.6989 21.1667 87.8156 21.65C86.9322 22.1333 85.8822 22.375 84.6656 22.375ZM98.9644 15.175C98.9644 14.625 98.9644 13.9833 98.9644 13.25C98.9644 12.5167 98.9561 11.8417 98.9394 11.225H96.8644C96.6977 13.1417 96.3561 14.8917 95.8394 16.475C95.3394 18.0417 94.7394 19.4417 94.0394 20.675H98.9394C98.9561 20.0583 98.9644 19.3917 98.9644 18.675C98.9644 17.9417 98.9644 17.3 98.9644 16.75V15.175ZM93.1394 11.075V9.925H104.839V11.075L102.964 11.475C102.948 12.075 102.939 12.7083 102.939 13.375C102.939 14.0417 102.939 14.6417 102.939 15.175V16.75C102.939 17.3 102.939 17.9417 102.939 18.675C102.939 19.3917 102.948 20.0583 102.964 20.675H105.139L105.039 25.925H103.314L102.539 22H93.1144L92.3144 25.925H90.5894L90.4894 20.675H91.8394C92.6561 19.575 93.3727 18.2833 93.9894 16.8C94.6061 15.3 95.0227 13.55 95.2394 11.55L93.1394 11.075ZM114.991 11.075V9.925H121.466V11.075L120.141 11.35C120.124 11.9667 120.116 12.625 120.116 13.325C120.116 14.025 120.116 14.6417 120.116 15.175V16.75C120.116 17.2833 120.116 17.9 120.116 18.6C120.116 19.2833 120.124 19.9333 120.141 20.55L121.466 20.825V22H114.991V20.825L116.516 20.45V14L111.716 19.575V20.475L113.241 20.825V22H106.541V20.825L107.866 20.55C107.883 19.9333 107.891 19.2833 107.891 18.6C107.891 17.9 107.891 17.2833 107.891 16.75V15.175C107.891 14.6417 107.891 14.025 107.891 13.325C107.891 12.625 107.883 11.9667 107.866 11.35L106.541 11.075V9.925H113.241V11.075L111.716 11.425V17.65L116.516 12.1V11.45L114.991 11.075ZM122.553 14.45L122.653 9.925H135.278L135.353 14.45H133.803L133.178 11.225H130.978C130.962 11.8417 130.953 12.5167 130.953 13.25C130.953 13.9833 130.953 14.625 130.953 15.175V16.75C130.953 17.2667 130.953 17.875 130.953 18.575C130.953 19.2583 130.962 19.9083 130.978 20.525L132.478 20.825V22H125.428V20.825L126.928 20.525C126.945 19.9083 126.953 19.2583 126.953 18.575C126.953 17.875 126.953 17.2667 126.953 16.75V15.175C126.953 14.625 126.953 13.9833 126.953 13.25C126.953 12.5167 126.945 11.8417 126.928 11.225H124.728L124.103 14.45H122.553Z" fill="#212121"/>
<path d="M37.4367 43.225L37.3367 39.35H39.1867L39.9117 42.6C40.245 42.7667 40.5867 42.8833 40.9367 42.95C41.2867 43.0167 41.6617 43.05 42.0617 43.05C43.0283 43.05 43.845 42.8583 44.5117 42.475C45.1783 42.0917 45.695 41.4167 46.0617 40.45C46.4283 39.4667 46.6283 38.1083 46.6617 36.375H42.6867L42.3867 38.4H40.9367V32.925H42.3867L42.6867 34.9H46.6367C46.5867 33.2333 46.3783 31.9417 46.0117 31.025C45.645 30.1083 45.1367 29.4667 44.4867 29.1C43.8367 28.7333 43.0533 28.55 42.1367 28.55C41.3367 28.55 40.6117 28.6833 39.9617 28.95L39.2617 32.225H37.3367L37.4367 28.375C38.12 27.9917 38.87 27.6833 39.6867 27.45C40.52 27.2167 41.445 27.1 42.4617 27.1C44.1117 27.1 45.57 27.4167 46.8367 28.05C48.1033 28.6667 49.095 29.6167 49.8117 30.9C50.5283 32.1833 50.8867 33.8083 50.8867 35.775C50.8867 37.7917 50.5117 39.4417 49.7617 40.725C49.0117 42.0083 47.995 42.9583 46.7117 43.575C45.445 44.175 44.02 44.475 42.4367 44.475C41.42 44.475 40.5117 44.3583 39.7117 44.125C38.9283 43.9083 38.17 43.6083 37.4367 43.225ZM61.0728 42.2L60.5728 39.875C60.4728 39.3917 60.2728 39.0417 59.9728 38.825C59.6728 38.6083 59.2145 38.5 58.5978 38.5H57.8228C57.8228 39.1667 57.8228 39.8583 57.8228 40.575C57.8395 41.2917 57.8478 41.95 57.8478 42.55L59.1728 42.825V44H52.4728V42.825L53.7978 42.55C53.8145 41.9333 53.8228 41.2833 53.8228 40.6C53.8228 39.9 53.8228 39.2833 53.8228 38.75V37.175C53.8228 36.6417 53.8228 36.025 53.8228 35.325C53.8228 34.625 53.8145 33.9667 53.7978 33.35L52.4728 33.075V31.925H59.1728V33.075L57.8478 33.35C57.8478 33.9333 57.8395 34.575 57.8228 35.275C57.8228 35.9583 57.8228 36.5917 57.8228 37.175H58.7478C59.2645 37.175 59.6895 37.05 60.0228 36.8C60.3561 36.55 60.6728 35.975 60.9728 35.075C61.3561 33.8917 61.7728 33.05 62.2228 32.55C62.6895 32.05 63.3228 31.7083 64.1228 31.525C64.7061 31.6417 65.1395 31.8667 65.4228 32.2C65.7228 32.5333 65.8728 32.925 65.8728 33.375C65.8728 33.9417 65.6728 34.3833 65.2728 34.7C64.8895 35.0167 64.4145 35.175 63.8478 35.175C63.5811 35.175 63.3311 35.1583 63.0978 35.125C62.8811 35.0917 62.6645 35.0417 62.4478 34.975C62.3478 35.175 62.2478 35.4 62.1478 35.65C61.9311 36.2 61.6895 36.6417 61.4228 36.975C61.1561 37.2917 60.8311 37.55 60.4478 37.75C61.6811 37.9167 62.5978 38.25 63.1978 38.75C63.7978 39.25 64.2061 39.9417 64.4228 40.825L64.8728 42.625L66.2478 42.85V44C65.9478 44.0667 65.6061 44.1333 65.2228 44.2C64.8561 44.2667 64.4561 44.3 64.0228 44.3C63.2395 44.3 62.5895 44.1583 62.0728 43.875C61.5728 43.575 61.2395 43.0167 61.0728 42.2ZM73.0039 44.375C71.8705 44.375 70.8289 44.1417 69.8789 43.675C68.9455 43.1917 68.1955 42.475 67.6289 41.525C67.0622 40.575 66.7789 39.4 66.7789 38C66.7789 36.6333 67.0789 35.4667 67.6789 34.5C68.2955 33.5333 69.1122 32.8 70.1289 32.3C71.1622 31.7833 72.2955 31.525 73.5289 31.525C74.4122 31.525 75.1955 31.6917 75.8789 32.025C76.5622 32.3583 77.1039 32.8 77.5039 33.35C77.9205 33.9 78.1539 34.5083 78.2039 35.175C77.9372 36.0417 77.3705 36.475 76.5039 36.475C76.0205 36.475 75.5955 36.3 75.2289 35.95C74.8622 35.6 74.6539 34.9833 74.6039 34.1L74.4289 32.85C74.3622 32.8333 74.2872 32.825 74.2039 32.825C74.1205 32.825 74.0372 32.825 73.9539 32.825C73.4872 32.825 73.0205 32.9833 72.5539 33.3C72.0872 33.6167 71.7039 34.1167 71.4039 34.8C71.1039 35.4833 70.9539 36.3917 70.9539 37.525C70.9539 38.9583 71.2705 40.0667 71.9039 40.85C72.5539 41.6167 73.4039 42 74.4539 42C75.0539 42 75.5789 41.875 76.0289 41.625C76.4789 41.3583 76.8872 41.0167 77.2539 40.6L78.1289 41.375C77.6455 42.3917 76.9622 43.15 76.0789 43.65C75.2122 44.1333 74.1872 44.375 73.0039 44.375ZM79.4503 44V42.825L80.7753 42.55C80.792 41.9333 80.8003 41.2833 80.8003 40.6C80.8003 39.9 80.8003 39.2833 80.8003 38.75V37.175C80.8003 36.6417 80.8003 36.025 80.8003 35.325C80.8003 34.625 80.792 33.9667 80.7753 33.35L79.4503 33.075V31.925H93.8753V33.075L92.5253 33.35C92.5087 33.9667 92.5003 34.625 92.5003 35.325C92.5003 36.025 92.5003 36.6417 92.5003 37.175V38.75C92.5003 39.2833 92.5003 39.9 92.5003 40.6C92.5003 41.2833 92.5087 41.9333 92.5253 42.55L93.8753 42.825V44H87.1753V42.825L88.5003 42.55C88.517 41.9333 88.5253 41.2833 88.5253 40.6C88.5253 39.9 88.5253 39.2833 88.5253 38.75V37.175C88.5253 36.625 88.5253 35.9833 88.5253 35.25C88.5253 34.5167 88.517 33.8417 88.5003 33.225H84.8253C84.8087 33.8417 84.8003 34.5167 84.8003 35.25C84.8003 35.9833 84.8003 36.625 84.8003 37.175V38.75C84.8003 39.2833 84.8003 39.9 84.8003 40.6C84.8003 41.2833 84.8087 41.9333 84.8253 42.55L86.1503 42.825V44H79.4503ZM101.421 32.825C100.955 32.825 100.521 33.1167 100.121 33.7C99.7379 34.2667 99.5212 35.3167 99.4712 36.85H101.596C102.196 36.85 102.596 36.7333 102.796 36.5C103.013 36.25 103.121 35.8417 103.121 35.275C103.121 34.4417 102.955 33.825 102.621 33.425C102.288 33.025 101.888 32.825 101.421 32.825ZM101.471 44.375C100.255 44.375 99.1796 44.125 98.2462 43.625C97.3129 43.1083 96.5796 42.375 96.0462 41.425C95.5129 40.4583 95.2462 39.3083 95.2462 37.975C95.2462 36.575 95.5546 35.4 96.1712 34.45C96.8046 33.4833 97.6129 32.7583 98.5962 32.275C99.5796 31.775 100.605 31.525 101.671 31.525C102.771 31.525 103.705 31.7583 104.471 32.225C105.255 32.6917 105.846 33.325 106.246 34.125C106.646 34.9083 106.846 35.8083 106.846 36.825C106.846 37.3083 106.796 37.75 106.696 38.15H99.4712C99.5546 39.4667 99.9129 40.4417 100.546 41.075C101.196 41.6917 101.955 42 102.821 42C103.505 42 104.088 41.875 104.571 41.625C105.055 41.3583 105.48 41.0333 105.846 40.65L106.721 41.45C106.205 42.4333 105.505 43.1667 104.621 43.65C103.738 44.1333 102.688 44.375 101.471 44.375ZM108.039 49.675V48.5L109.439 48.2C109.456 47.4167 109.464 46.6833 109.464 46C109.481 45.3333 109.489 44.6917 109.489 44.075V37.3C109.489 36.6167 109.481 36.0917 109.464 35.725C109.464 35.3417 109.448 34.9 109.414 34.4L107.864 34.175V33.2L112.764 31.525L113.189 31.775L113.289 33.175C114.339 32.075 115.573 31.525 116.989 31.525C117.906 31.525 118.731 31.7667 119.464 32.25C120.198 32.7333 120.781 33.45 121.214 34.4C121.664 35.35 121.889 36.5167 121.889 37.9C121.889 39.2333 121.639 40.3917 121.139 41.375C120.639 42.3417 119.981 43.0833 119.164 43.6C118.364 44.1167 117.489 44.375 116.539 44.375C115.256 44.375 114.206 43.9417 113.389 43.075V44.05C113.389 44.6667 113.389 45.3083 113.389 45.975C113.406 46.6417 113.423 47.3583 113.439 48.125L115.039 48.5V49.675H108.039ZM115.164 33.7C114.848 33.7 114.548 33.7667 114.264 33.9C113.998 34.0333 113.731 34.2 113.464 34.4V41.65C113.964 42.0667 114.506 42.275 115.089 42.275C115.839 42.275 116.448 41.925 116.914 41.225C117.398 40.525 117.639 39.4333 117.639 37.95C117.639 36.4667 117.406 35.3917 116.939 34.725C116.489 34.0417 115.898 33.7 115.164 33.7ZM123.172 36.45L123.272 31.925H135.897L135.972 36.45H134.422L133.797 33.225H131.597C131.581 33.8417 131.572 34.5167 131.572 35.25C131.572 35.9833 131.572 36.625 131.572 37.175V38.75C131.572 39.2667 131.572 39.875 131.572 40.575C131.572 41.2583 131.581 41.9083 131.597 42.525L133.097 42.825V44H126.047V42.825L127.547 42.525C127.564 41.9083 127.572 41.2583 127.572 40.575C127.572 39.875 127.572 39.2667 127.572 38.75V37.175C127.572 36.625 127.572 35.9833 127.572 35.25C127.572 34.5167 127.564 33.8417 127.547 33.225H125.347L124.722 36.45H123.172Z" fill="#159C4B"/>
</svg>
