<svg width="31" height="30" viewBox="0 0 31 30" fill="none" xmlns="http://www.w3.org/2000/svg">
<path fill-rule="evenodd" clip-rule="evenodd" d="M29.4522 26.3879C29.253 26.5864 29.0127 26.8404 28.758 27.109C28.1224 27.7836 27.3283 28.6222 26.8306 28.9622C24.2121 30.7516 20.7089 29.8954 18.2309 28.8629C14.962 27.5009 11.4031 24.9904 8.20755 21.7945C5.00903 18.5983 2.49876 15.0383 1.13674 11.7712C0.105495 9.29273 -0.752493 5.78883 1.03714 3.16969C1.37698 2.67164 2.21751 1.87881 2.89122 1.24195C3.16075 0.988008 3.4127 0.748066 3.61192 0.549492C3.96561 0.197564 4.44425 0 4.9432 0C5.44215 0 5.92079 0.197564 6.27448 0.549492L11.0925 5.36613C11.4443 5.7198 11.6417 6.19832 11.6417 6.69712C11.6417 7.19592 11.4443 7.67444 11.0925 8.0281L9.78003 9.33797C9.3417 9.77309 9.05559 10.3381 8.96427 10.949C8.87296 11.5598 8.98133 12.1838 9.27325 12.7281C11.0785 16.1353 13.8655 18.9219 17.2731 20.7265C17.8172 21.0184 18.4411 21.1266 19.0518 21.0351C19.6624 20.9437 20.2272 20.6574 20.662 20.2189L21.9713 18.909C22.325 18.5571 22.8036 18.3595 23.3026 18.3595C23.8015 18.3595 24.2801 18.5571 24.6338 18.909L29.4522 23.7265C29.8039 24.08 30.0014 24.5585 30.0014 25.0572C30.0014 25.5559 29.8039 26.0343 29.4522 26.3879Z" fill="#FFC051"/>
</svg>
