<svg width="46" height="47" fill="none" xmlns="http://www.w3.org/2000/svg"><path d="M25.582 46.181h-5.164a3.227 3.227 0 0 1-3.227-3.227v-2.608a17.73 17.73 0 0 1-5.648-3.2L8.571 38.8a3.235 3.235 0 0 1-4.408-1.181l-2.73-4.728a3.227 3.227 0 0 1 1.182-4.409l2.94-1.699a17.061 17.061 0 0 1-.305-3.193c.003-1.083.107-2.164.31-3.228l-2.946-1.665a3.227 3.227 0 0 1-1.182-4.408l2.729-4.727A3.227 3.227 0 0 1 8.569 8.38l2.947 1.7a17.49 17.49 0 0 1 5.618-3.227l.057-2.627A3.227 3.227 0 0 1 20.418 1h5.164a3.227 3.227 0 0 1 3.227 3.227v2.608a17.68 17.68 0 0 1 5.648 3.21l2.97-1.663a3.227 3.227 0 0 1 4.409 1.18l2.73 4.728a3.226 3.226 0 0 1-1.183 4.408l-2.94 1.7c.203 1.052.305 2.121.307 3.193a17.415 17.415 0 0 1-.31 3.227l2.947 1.659a3.227 3.227 0 0 1 1.18 4.408l-2.728 4.726a3.235 3.235 0 0 1-4.408 1.183l-2.947-1.702a17.425 17.425 0 0 1-5.619 3.227l-.056 2.635a3.227 3.227 0 0 1-3.227 3.227ZM11.485 33.884c.784.001 1.542.28 2.14.787a14.454 14.454 0 0 0 4.573 2.611 3.272 3.272 0 0 1 2.22 3.066v2.606h5.164v-2.608a3.273 3.273 0 0 1 2.218-3.065 14.41 14.41 0 0 0 4.575-2.611 3.26 3.26 0 0 1 3.723-.368l2.945 1.702 2.73-4.728-2.942-1.699a3.195 3.195 0 0 1-1.562-3.356 13.771 13.771 0 0 0 0-5.259 3.2 3.2 0 0 1 1.562-3.36l2.942-1.699-2.73-4.726-2.945 1.7a3.258 3.258 0 0 1-3.723-.367 14.42 14.42 0 0 0-4.573-2.61 3.271 3.271 0 0 1-2.22-3.067V4.227h-5.164v2.608A3.273 3.273 0 0 1 18.2 9.9a14.445 14.445 0 0 0-4.575 2.609 3.26 3.26 0 0 1-3.724.366l-2.944-1.699-2.73 4.726 2.942 1.701a3.195 3.195 0 0 1 1.562 3.357 13.773 13.773 0 0 0 0 5.258 3.2 3.2 0 0 1-1.562 3.36l-2.942 1.699 2.73 4.726 2.945-1.699a3.156 3.156 0 0 1 1.583-.421Z" fill="#F8B917"/><path d="M23 35.693A12.102 12.102 0 1 1 35.102 23.59 12.115 12.115 0 0 1 23 35.693Zm0-20.977a8.875 8.875 0 1 0 8.875 8.875A8.885 8.885 0 0 0 23 14.716Z" fill="#F8B917"/><path d="M23.03 19.77h-.23l-.03 1.726v2.068h.169c.633 0 1.108-.171 1.425-.513.317-.352.475-.818.475-1.398 0-.618-.163-1.084-.49-1.398-.327-.323-.767-.485-1.318-.485Zm-3.83-.043V19h3.907c1.38 0 2.37.242 2.974.727.613.485.919 1.142.919 1.969 0 .513-.133.974-.398 1.383-.256.4-.675.718-1.257.956-.582.228-1.354.342-2.314.342h-.26v.956h2.727v.813h-2.713v.984l1.364.143V28H19.2v-.727l1.104-.114c.01-.172.015-.338.015-.5v-.513H19v-.813h1.333v-.955H19v-.814h1.333v-2.011c0-.58-.01-1.15-.03-1.712l-1.104-.114Z" fill="#F8B917"/><path d="M25.582 46.181h-5.164a3.227 3.227 0 0 1-3.227-3.227v-2.608a17.73 17.73 0 0 1-5.648-3.2L8.571 38.8a3.235 3.235 0 0 1-4.408-1.181l-2.73-4.728a3.227 3.227 0 0 1 1.182-4.409l2.94-1.699a17.061 17.061 0 0 1-.305-3.193c.003-1.083.107-2.164.31-3.228l-2.946-1.665a3.227 3.227 0 0 1-1.182-4.408l2.729-4.727A3.227 3.227 0 0 1 8.569 8.38l2.947 1.7a17.49 17.49 0 0 1 5.618-3.227l.057-2.627A3.227 3.227 0 0 1 20.418 1h5.164a3.227 3.227 0 0 1 3.227 3.227v2.608a17.68 17.68 0 0 1 5.648 3.21l2.97-1.663a3.227 3.227 0 0 1 4.409 1.18l2.73 4.728a3.226 3.226 0 0 1-1.183 4.408l-2.94 1.7c.203 1.052.305 2.121.307 3.193a17.415 17.415 0 0 1-.31 3.227l2.947 1.659a3.227 3.227 0 0 1 1.18 4.408l-2.728 4.726a3.235 3.235 0 0 1-4.408 1.183l-2.947-1.702a17.425 17.425 0 0 1-5.619 3.227l-.056 2.635a3.227 3.227 0 0 1-3.227 3.227ZM11.485 33.884c.784.001 1.542.28 2.14.787a14.454 14.454 0 0 0 4.573 2.611 3.272 3.272 0 0 1 2.22 3.066v2.606h5.164v-2.608a3.273 3.273 0 0 1 2.218-3.065 14.41 14.41 0 0 0 4.575-2.611 3.26 3.26 0 0 1 3.723-.368l2.945 1.702 2.73-4.728-2.942-1.699a3.195 3.195 0 0 1-1.562-3.356 13.771 13.771 0 0 0 0-5.259 3.2 3.2 0 0 1 1.562-3.36l2.942-1.699-2.73-4.726-2.945 1.7a3.258 3.258 0 0 1-3.723-.367 14.42 14.42 0 0 0-4.573-2.61 3.271 3.271 0 0 1-2.22-3.067V4.227h-5.164v2.608A3.273 3.273 0 0 1 18.2 9.9a14.445 14.445 0 0 0-4.575 2.609 3.26 3.26 0 0 1-3.724.366l-2.944-1.699-2.73 4.726 2.942 1.701a3.195 3.195 0 0 1 1.562 3.357 13.773 13.773 0 0 0 0 5.258 3.2 3.2 0 0 1-1.562 3.36l-2.942 1.699 2.73 4.726 2.945-1.699a3.156 3.156 0 0 1 1.583-.421Z" stroke="#F8B917"/><path d="M23 35.693A12.102 12.102 0 1 1 35.102 23.59 12.115 12.115 0 0 1 23 35.693Zm0-20.977a8.875 8.875 0 1 0 8.875 8.875A8.885 8.885 0 0 0 23 14.716Z" stroke="#F8B917"/><path d="M23.03 19.77h-.23l-.03 1.726v2.068h.169c.633 0 1.108-.171 1.425-.513.317-.352.475-.818.475-1.398 0-.618-.163-1.084-.49-1.398-.327-.323-.767-.485-1.318-.485Zm-3.83-.043V19h3.907c1.38 0 2.37.242 2.974.727.613.485.919 1.142.919 1.969 0 .513-.133.974-.398 1.383-.256.4-.675.718-1.257.956-.582.228-1.354.342-2.314.342h-.26v.956h2.727v.813h-2.713v.984l1.364.143V28H19.2v-.727l1.104-.114c.01-.172.015-.338.015-.5v-.513H19v-.813h1.333v-.955H19v-.814h1.333v-2.011c0-.58-.01-1.15-.03-1.712l-1.104-.114Z" stroke="#F8B917"/></svg>