<svg width="45" height="45" fill="none" xmlns="http://www.w3.org/2000/svg"><path fill-rule="evenodd" clip-rule="evenodd" d="M11.25 0a2.25 2.25 0 0 1 2.25 2.25V4.5h18V2.25a2.25 2.25 0 1 1 4.5 0V4.5c1.033 0 1.933.007 2.689.069.89.072 1.774.233 2.626.667a6.75 6.75 0 0 1 2.95 2.95c.433.85.593 1.736.666 2.625.069.843.069 1.866.069 3.052v21.774c0 1.186 0 2.21-.069 3.052-.072.89-.233 1.774-.667 2.626a6.749 6.749 0 0 1-2.95 2.95c-.85.433-1.736.593-2.625.666-.843.069-1.866.069-3.052.069H9.363c-1.186 0-2.209 0-3.052-.069-.89-.072-1.774-.233-2.625-.667a6.75 6.75 0 0 1-2.95-2.95c-.434-.85-.595-1.736-.667-2.625-.07-.843-.069-1.866-.069-3.052V13.863c0-1.186 0-2.209.069-3.052.072-.89.233-1.774.667-2.625a6.75 6.75 0 0 1 2.95-2.95c.85-.434 1.736-.595 2.625-.667C7.067 4.507 7.967 4.5 9 4.5V2.25A2.25 2.25 0 0 1 11.25 0ZM9 9c-1.046.001-1.762.008-2.322.054-.612.05-.838.135-.95.191a2.25 2.25 0 0 0-.983.984c-.056.11-.141.337-.191.949-.052.637-.054 1.475-.054 2.772v21.6c0 1.297.002 2.135.054 2.772.05.611.135.838.191.95.216.423.56.767.984.983.11.056.337.141.949.191.6.05 1.376.053 2.547.054 0-.148.015-.297.045-.447C10.521 33.89 15.966 29.25 22.5 29.25c6.534 0 11.979 4.64 13.23 10.803.03.15.045.3.046.447 1.17 0 1.947-.005 2.546-.054.612-.05.838-.135.95-.191.423-.216.767-.56.983-.983.056-.112.141-.338.191-.95.052-.637.054-1.475.054-2.772v-21.6c0-1.297-.002-2.135-.054-2.772-.05-.612-.134-.838-.191-.95a2.25 2.25 0 0 0-.983-.983c-.112-.056-.338-.141-.95-.191C37.762 9.008 37.046 9 36 9a2.25 2.25 0 1 1-4.5 0h-18A2.25 2.25 0 0 1 9 9Zm22.217 31.5a9.005 9.005 0 0 0-17.434 0h17.434ZM22.5 18a2.25 2.25 0 1 0 0 4.5 2.25 2.25 0 0 0 0-4.5Zm-6.75 2.25a6.75 6.75 0 1 1 13.5 0 6.75 6.75 0 0 1-13.5 0Z" fill="#34C76C"/></svg>