<svg width="47" height="47" fill="none" xmlns="http://www.w3.org/2000/svg"><path d="M27.28 21.215a1.758 1.758 0 1 0 0-3.516 1.758 1.758 0 0 0 0 3.516Zm0 7.646a1.758 1.758 0 1 0 0-3.515 1.758 1.758 0 0 0 0 3.515Zm7.646-7.646a1.758 1.758 0 1 0 0-3.516 1.758 1.758 0 0 0 0 3.516Z" fill="#34C76C"/><path d="M44.242 22.973c.971 0 1.758-.787 1.758-1.758v-9.668a7.04 7.04 0 0 0-7.031-7.031h-2.285V2.758a1.758 1.758 0 1 0-3.516 0v1.758H25.17V2.758a1.758 1.758 0 1 0-3.516 0v1.758h-7.91V2.758a1.758 1.758 0 1 0-3.515 0v1.758H8.03A7.04 7.04 0 0 0 1 11.546V38.97A7.04 7.04 0 0 0 8.031 46H30.18c.06 0 .119-.003.177-.009a1.758 1.758 0 0 0 1.44-.53l13.711-14.238a1.758 1.758 0 0 0-1.266-2.977h-8.437a7.04 7.04 0 0 0-7.032 7.031v7.207H8.031a3.52 3.52 0 0 1-3.515-3.515V11.547A3.52 3.52 0 0 1 8.03 8.03h2.197v1.76a1.758 1.758 0 1 0 3.516 0V8.031h7.91V9.79a1.758 1.758 0 1 0 3.516 0V8.031h7.998V9.79a1.758 1.758 0 1 0 3.516 0V8.031h2.285a3.52 3.52 0 0 1 3.515 3.516v9.668c0 .97.787 1.758 1.758 1.758ZM32.29 35.277a3.52 3.52 0 0 1 3.516-3.515h4.304l-7.82 8.12v-4.605Z" fill="#34C76C"/><path d="M11.986 21.215a1.758 1.758 0 1 0 0-3.516 1.758 1.758 0 0 0 0 3.516Zm7.647 7.646a1.758 1.758 0 1 0 0-3.515 1.758 1.758 0 0 0 0 3.515Zm-7.647 7.647a1.758 1.758 0 1 0 0-3.516 1.758 1.758 0 0 0 0 3.516Zm0-7.647a1.758 1.758 0 1 0 0-3.515 1.758 1.758 0 0 0 0 3.515Zm7.647 7.647a1.758 1.758 0 1 0 0-3.516 1.758 1.758 0 0 0 0 3.516Zm0-15.293a1.758 1.758 0 1 0 0-3.516 1.758 1.758 0 0 0 0 3.516Z" fill="#34C76C"/><path d="M27.28 21.215a1.758 1.758 0 1 0 0-3.516 1.758 1.758 0 0 0 0 3.516Zm0 7.646a1.758 1.758 0 1 0 0-3.515 1.758 1.758 0 0 0 0 3.515Zm7.646-7.646a1.758 1.758 0 1 0 0-3.516 1.758 1.758 0 0 0 0 3.516Z" stroke="#34C76C"/><path d="M44.242 22.973c.971 0 1.758-.787 1.758-1.758v-9.668a7.04 7.04 0 0 0-7.031-7.031h-2.285V2.758a1.758 1.758 0 1 0-3.516 0v1.758H25.17V2.758a1.758 1.758 0 1 0-3.516 0v1.758h-7.91V2.758a1.758 1.758 0 1 0-3.515 0v1.758H8.03A7.04 7.04 0 0 0 1 11.546V38.97A7.04 7.04 0 0 0 8.031 46H30.18c.06 0 .119-.003.177-.009a1.758 1.758 0 0 0 1.44-.53l13.711-14.238a1.758 1.758 0 0 0-1.266-2.977h-8.437a7.04 7.04 0 0 0-7.032 7.031v7.207H8.031a3.52 3.52 0 0 1-3.515-3.515V11.547A3.52 3.52 0 0 1 8.03 8.03h2.197v1.76a1.758 1.758 0 1 0 3.516 0V8.031h7.91V9.79a1.758 1.758 0 1 0 3.516 0V8.031h7.998V9.79a1.758 1.758 0 1 0 3.516 0V8.031h2.285a3.52 3.52 0 0 1 3.515 3.516v9.668c0 .97.787 1.758 1.758 1.758ZM32.29 35.277a3.52 3.52 0 0 1 3.516-3.515h4.304l-7.82 8.12v-4.605Z" stroke="#34C76C"/><path d="M11.986 21.215a1.758 1.758 0 1 0 0-3.516 1.758 1.758 0 0 0 0 3.516Zm7.647 7.646a1.758 1.758 0 1 0 0-3.515 1.758 1.758 0 0 0 0 3.515Zm-7.647 7.647a1.758 1.758 0 1 0 0-3.516 1.758 1.758 0 0 0 0 3.516Zm0-7.647a1.758 1.758 0 1 0 0-3.515 1.758 1.758 0 0 0 0 3.515Zm7.647 7.647a1.758 1.758 0 1 0 0-3.516 1.758 1.758 0 0 0 0 3.516Zm0-15.293a1.758 1.758 0 1 0 0-3.516 1.758 1.758 0 0 0 0 3.516Z" stroke="#34C76C"/></svg>