<svg width="45" height="45" fill="none" xmlns="http://www.w3.org/2000/svg"><path fill-rule="evenodd" clip-rule="evenodd" d="M22.5 4.5c-9.941 0-18 8.059-18 18s8.059 18 18 18 18-8.059 18-18-8.059-18-18-18ZM0 22.5C0 10.074 10.074 0 22.5 0S45 10.074 45 22.5 34.926 45 22.5 45 0 34.926 0 22.5Zm31.966-9.466a2.25 2.25 0 0 1 0 3.182l-15.75 15.75a2.25 2.25 0 0 1-3.182-3.182l15.75-15.75a2.25 2.25 0 0 1 3.182 0ZM13.5 16.875a3.375 3.375 0 1 1 6.75 0 3.375 3.375 0 0 1-6.75 0Zm11.25 11.25a3.375 3.375 0 1 1 6.75 0 3.375 3.375 0 0 1-6.75 0Z" fill="#fff"/></svg>