<svg width="239" height="45" viewBox="0 0 239 45" fill="none" xmlns="http://www.w3.org/2000/svg">
<path fill-rule="evenodd" clip-rule="evenodd" d="M0 27.2081C0 36.0325 4.31683 44.9309 13.9835 44.9309C23.6412 44.9309 27.9664 36.0325 27.9664 27.2081C27.9664 21.181 26.1926 14.2407 23.2322 8.63349C20.353 3.21995 16.8934 0 13.9835 0C11.0646 0 7.60416 3.21995 4.74994 8.63349C1.77488 14.2407 0 21.181 0 27.2081ZM99.2818 13.2388H89.4933V2.4071H119.557V13.2388H109.769L109.769 42.5239H99.2812L99.2818 13.2388ZM141.926 13.2389H157.309V2.40728H141.927C127.794 2.40728 120.248 10.4707 120.248 22.4657C120.248 34.4606 127.794 42.5242 141.927 42.5242H157.309V31.6924H141.926C135.386 31.6924 131.085 29.0096 131.085 22.4657C131.085 15.9216 135.386 13.2389 141.926 13.2389ZM62.5694 26.3524L68.1604 2.40728H86.6926V42.5242H76.2056V9.87293L68.5818 42.5242H56.5571L48.9382 9.89331V42.5242H38.4506V2.40728H56.9783L62.5694 26.3524ZM176.437 14.0355H172.738V17.9596H176.437C177.373 17.9596 177.931 17.4077 177.931 16.3898V15.663C177.931 14.6163 177.45 14.0355 176.437 14.0355ZM177.373 22.4657H167.798V2.40675H181.883V7.20384H172.738V9.81976H177.373C181.25 9.81976 183.124 12.0292 183.124 15.9245C183.124 20.0236 181.25 22.4657 177.373 22.4657ZM194.52 14.2675H190.619L192.569 6.85508L194.52 14.2675ZM202.017 22.4657L196.622 2.40728H189.276L183.88 22.4657H188.491L189.479 18.6281H195.66L196.673 22.4657H202.017ZM214.504 22.4657V14.704H208.856V22.4657H203.789V2.40728H208.856V9.76198H214.504V2.40728H219.572V22.4657H214.504ZM228.565 9.7618H227.678V2.4071H222.611V22.4654H227.678V14.7038H228.412L233.098 22.4654H238.951L232.618 11.9713L238.444 2.4071H233.098L228.565 9.7618Z" fill="#E30611"/>
</svg>
