<svg width="47" height="47" viewBox="0 0 47 47" fill="none" xmlns="http://www.w3.org/2000/svg">
<path d="M44.5938 1H18.1747C17.0771 1.01746 16.0451 1.52445 15.3622 2.38129L7.55472 11.7251C6.12787 13.5261 6.25387 16.1011 7.84998 17.7545C9.53535 19.3878 12.227 19.357 13.8743 17.6857C15.0594 22.8029 19.606 26.4442 24.8726 26.4942H24.9935C29.6939 26.4808 33.9054 23.597 35.6066 19.2283H37.5625C37.5625 20.0026 38.1922 20.6304 38.9688 20.6304H44.5938C45.3707 20.6304 46 20.0026 46 19.2283V2.40217C46 1.62783 45.3707 1 44.5938 1ZM24.9935 23.6956H24.9062C20.1492 23.6457 16.3338 19.7596 16.3846 15.0163C16.3846 14.9348 16.3942 14.8533 16.3973 14.7722L20.9941 9.44386H28.7734L29.5342 10.0566L25.469 10.8152C23.1388 10.8539 21.2818 12.7685 21.3206 15.0919C21.3594 17.415 23.2796 19.2669 25.6094 19.2283H32.5239C31.0171 21.9734 28.1325 23.6847 24.9935 23.6956ZM25.6094 16.4239C24.8328 16.4239 24.2031 15.7961 24.2031 15.0217C24.2031 14.2474 24.8328 13.6196 25.6094 13.6196C25.6973 13.6196 25.7848 13.611 25.871 13.5942L33.043 12.2369C33.5817 12.1349 34.0115 11.7303 34.1447 11.2C34.2779 10.6697 34.0898 10.1107 33.663 9.7677L30.1474 6.94247C29.8982 6.74083 29.5868 6.63095 29.2658 6.63129H20.3445C19.936 6.63198 19.548 6.80999 19.2812 7.11911L11.8284 15.7718C11.2708 16.2986 10.3974 16.2986 9.83987 15.7718C9.25863 15.1463 9.20782 14.1964 9.71902 13.5131L17.5234 4.1703C17.6762 3.95771 17.9159 3.82352 18.1775 3.80435H37.5625V16.4239H25.6094ZM43.1875 17.8261H40.375V3.80435H43.1875V17.8261Z" fill="#34C76C"/>
<path d="M33.2497 29.1838L26.1721 34.76H25.3804C25.8205 33.4965 25.632 32.0998 24.8723 30.9971C24.1125 29.8949 22.8721 29.2184 21.5314 29.1753L13.9096 27.794C13.8262 27.7789 13.7414 27.7714 13.6562 27.7717H9.4375C9.4375 26.9974 8.80819 26.3696 8.03125 26.3696H2.40625C1.62965 26.3696 1 26.9974 1 27.7717V44.5978C1 45.3722 1.62965 46 2.40625 46H28.7734V44.5978L28.8256 46C29.9229 45.9822 30.9546 45.4762 31.6381 44.6201L39.4429 35.2762C40.8704 33.4756 40.7441 30.9003 39.1476 29.2468C37.5024 27.6868 34.9278 27.6591 33.2497 29.1838ZM3.8125 29.1739H6.625V43.1957H3.8125V29.1739ZM37.2813 33.4855L29.4766 42.8297C29.3241 43.0406 29.0859 43.1737 28.8256 43.1929H9.4375V30.5733H13.5299L21.139 31.9529C21.2221 31.9676 21.3065 31.9748 21.3906 31.9755C22.1188 31.9748 22.7272 32.5284 22.7924 33.2517C22.858 33.9747 22.3591 34.6279 21.6426 34.7573L14.2272 34.735H14.219C13.4424 34.7326 12.8106 35.3584 12.8086 36.1327C12.8062 36.9074 13.4338 37.537 14.2104 37.5394L21.3906 37.5842C21.5314 37.5842 21.6849 37.5757 21.8266 37.5616H26.6558C26.9724 37.5613 27.2796 37.4548 27.5275 37.2587L35.0511 31.3333C35.0933 31.2994 35.1342 31.2631 35.1733 31.2251C35.7309 30.6986 36.6043 30.6986 37.1618 31.2251C37.7441 31.8509 37.7942 32.8022 37.2813 33.4855Z" fill="#34C76C"/>
<path d="M44.5938 1H18.1747C17.0771 1.01746 16.0451 1.52445 15.3622 2.38129L7.55472 11.7251C6.12787 13.5261 6.25387 16.1011 7.84998 17.7545C9.53535 19.3878 12.227 19.357 13.8743 17.6857C15.0594 22.8029 19.606 26.4442 24.8726 26.4942H24.9935C29.6939 26.4808 33.9054 23.597 35.6066 19.2283H37.5625C37.5625 20.0026 38.1922 20.6304 38.9688 20.6304H44.5938C45.3707 20.6304 46 20.0026 46 19.2283V2.40217C46 1.62783 45.3707 1 44.5938 1ZM24.9935 23.6956H24.9062C20.1492 23.6457 16.3338 19.7596 16.3846 15.0163C16.3846 14.9348 16.3942 14.8533 16.3973 14.7722L20.9941 9.44386H28.7734L29.5342 10.0566L25.469 10.8152C23.1388 10.8539 21.2818 12.7685 21.3206 15.0919C21.3594 17.415 23.2796 19.2669 25.6094 19.2283H32.5239C31.0171 21.9734 28.1325 23.6847 24.9935 23.6956ZM25.6094 16.4239C24.8328 16.4239 24.2031 15.7961 24.2031 15.0217C24.2031 14.2474 24.8328 13.6196 25.6094 13.6196C25.6973 13.6196 25.7848 13.611 25.871 13.5942L33.043 12.2369C33.5817 12.1349 34.0115 11.7303 34.1447 11.2C34.2779 10.6697 34.0898 10.1107 33.663 9.7677L30.1474 6.94247C29.8982 6.74083 29.5868 6.63095 29.2658 6.63129H20.3445C19.936 6.63198 19.548 6.80999 19.2812 7.11911L11.8284 15.7718C11.2708 16.2986 10.3974 16.2986 9.83987 15.7718C9.25863 15.1463 9.20782 14.1964 9.71902 13.5131L17.5234 4.1703C17.6762 3.95771 17.9159 3.82352 18.1775 3.80435H37.5625V16.4239H25.6094ZM43.1875 17.8261H40.375V3.80435H43.1875V17.8261Z" stroke="#34C76C" stroke-width="1.2"/>
<path d="M33.2497 29.1838L26.1721 34.76H25.3804C25.8205 33.4965 25.632 32.0998 24.8723 30.9971C24.1125 29.8949 22.8721 29.2184 21.5314 29.1753L13.9096 27.794C13.8262 27.7789 13.7414 27.7714 13.6562 27.7717H9.4375C9.4375 26.9974 8.80819 26.3696 8.03125 26.3696H2.40625C1.62965 26.3696 1 26.9974 1 27.7717V44.5978C1 45.3722 1.62965 46 2.40625 46H28.7734V44.5978L28.8256 46C29.9229 45.9822 30.9546 45.4762 31.6381 44.6201L39.4429 35.2762C40.8704 33.4756 40.7441 30.9003 39.1476 29.2468C37.5024 27.6868 34.9278 27.6591 33.2497 29.1838ZM3.8125 29.1739H6.625V43.1957H3.8125V29.1739ZM37.2813 33.4855L29.4766 42.8297C29.3241 43.0406 29.0859 43.1737 28.8256 43.1929H9.4375V30.5733H13.5299L21.139 31.9529C21.2221 31.9676 21.3065 31.9748 21.3906 31.9755C22.1188 31.9748 22.7272 32.5284 22.7924 33.2517C22.858 33.9747 22.3591 34.6279 21.6426 34.7573L14.2272 34.735H14.219C13.4424 34.7326 12.8106 35.3584 12.8086 36.1327C12.8062 36.9074 13.4338 37.537 14.2104 37.5394L21.3906 37.5842C21.5314 37.5842 21.6849 37.5757 21.8266 37.5616H26.6558C26.9724 37.5613 27.2796 37.4548 27.5275 37.2587L35.0511 31.3333C35.0933 31.2994 35.1342 31.2631 35.1733 31.2251C35.7309 30.6986 36.6043 30.6986 37.1618 31.2251C37.7441 31.8509 37.7942 32.8022 37.2813 33.4855Z" stroke="#34C76C" stroke-width="1.2"/>
</svg>
