<svg width="41" height="45" viewBox="0 0 41 45" fill="none" xmlns="http://www.w3.org/2000/svg">
<path fill-rule="evenodd" clip-rule="evenodd" d="M6.75 0H33.75C37.478 0 40.5 3.02206 40.5 6.75V38.25C40.5 41.978 37.478 45 33.75 45H6.75C3.02209 45 0 41.978 0 38.25V6.75C0 3.02209 3.02209 0 6.75 0ZM6.75 4.5C5.50737 4.5 4.5 5.50737 4.5 6.75V13.5H36V6.75C36 5.50737 34.9927 4.5 33.75 4.5H6.75ZM36 18H4.5V38.25C4.5 39.4927 5.50737 40.5 6.75 40.5H33.75C34.9927 40.5 36 39.4927 36 38.25V18ZM6.75 24.75C6.75 22.8861 8.26103 21.375 10.125 21.375C11.989 21.375 13.5 22.8861 13.5 24.75C13.5 26.6139 11.989 28.125 10.125 28.125C8.26103 28.125 6.75 26.6139 6.75 24.75ZM20.25 21.375C18.3861 21.375 16.875 22.8861 16.875 24.75C16.875 26.6139 18.3861 28.125 20.25 28.125C22.1139 28.125 23.625 26.6139 23.625 24.75C23.625 22.8861 22.1139 21.375 20.25 21.375ZM27 24.75C27 22.8861 28.5111 21.375 30.375 21.375C32.2389 21.375 33.75 22.8861 33.75 24.75V33.75C33.75 35.6139 32.2389 37.125 30.375 37.125C28.5111 37.125 27 35.6139 27 33.75V24.75ZM10.125 30.375C8.26103 30.375 6.75 31.8861 6.75 33.75C6.75 35.6139 8.26103 37.125 10.125 37.125C11.989 37.125 13.5 35.6139 13.5 33.75C13.5 31.8861 11.989 30.375 10.125 30.375ZM16.875 33.75C16.875 31.8861 18.3861 30.375 20.25 30.375C22.1139 30.375 23.625 31.8861 23.625 33.75C23.625 35.6139 22.1139 37.125 20.25 37.125C18.3861 37.125 16.875 35.6139 16.875 33.75Z" fill="#212121"/>
</svg>
